<?xml version="1.0" encoding="UTF-8"?>
<svg width="1024px" height="1024px" viewBox="0 0 1024 1024" version="1.1" xmlns="http://www.w3.org/2000/svg" xmlns:xlink="http://www.w3.org/1999/xlink">
    <title>Astra</title>
    <defs>
        <polygon id="path-1" points="0 0.3984 538.7119 0.3984 538.7119 186 0 186"></polygon>
        <polygon id="path-3" points="0 1024 1024 1024 1024 0 0 0"></polygon>
    </defs>
    <g id="Astra" stroke="none" stroke-width="1" fill="none" fill-rule="evenodd">
        <g id="background">
            <polygon id="sky" fill="#15002A" points="0 1024 1024 1024 1024 0 0 0"></polygon>
            <g id="stars" transform="translate(48.037500, 218.361700)" fill="#FBEE4D">
                <polygon id="Fill-151" points="181.2223 36.2657 174.5743 37.2087 171.5823 43.2207 168.6303 37.1887 161.9893 36.2017 166.8133 31.5307 165.7003 24.9087 171.6333 28.0527 177.5873 24.9487 176.4303 31.5627"></polygon>
                <polygon id="Fill-152" points="352.1183 11.358 345.4703 12.301 342.4783 18.313 339.5263 12.281 332.8853 11.293 337.7093 6.622 336.5963 0 342.5293 3.145 348.4833 0.04 347.3263 6.655"></polygon>
                <polygon id="Fill-153" points="19.234 123.2628 12.586 124.2058 9.593 130.2178 6.642 124.1858 3.55271368e-15 123.1978 4.824 118.5268 3.712 111.9048 9.645 115.0498 15.599 111.9448 14.442 118.5598"></polygon>
                <polygon id="Fill-154" points="518.027 118.8546 511.379 119.7976 508.386 125.8096 505.435 119.7776 498.794 118.7906 503.618 114.1196 502.505 107.4966 508.438 110.6416 514.392 107.5366 513.234 114.1516"></polygon>
                <polygon id="Fill-155" points="633.816 39.8478 627.168 40.7908 624.176 46.8028 621.224 40.7708 614.583 39.7828 619.407 35.1118 618.294 28.4898 624.227 31.6348 630.181 28.5298 629.024 35.1438"></polygon>
                <polygon id="Fill-156" points="157.8302 233.9303 151.1822 234.8733 148.1892 240.8853 145.2382 234.8533 138.5962 233.8663 143.4202 229.1953 142.3082 222.5733 148.2412 225.7173 154.1952 222.6133 153.0382 229.2273"></polygon>
                <polygon id="Fill-157" points="735.5826 243.0865 728.9346 244.0295 725.9416 250.0415 722.9906 244.0095 716.3486 243.0225 721.1726 238.3515 720.0606 231.7295 725.9926 234.8735 731.9466 231.7685 730.7896 238.3835"></polygon>
                <polygon id="Fill-158" points="877.4195 392.0221 870.7715 392.9651 867.7785 398.9771 864.8265 392.9451 858.1855 391.9581 863.0095 387.2871 861.8975 380.6651 867.8295 383.8091 873.7835 380.7051 872.6265 387.3191"></polygon>
                <polygon id="Fill-159" points="908.5855 156.1876 901.9375 157.1306 898.9445 163.1426 895.9925 157.1106 889.3515 156.1226 894.1755 151.4516 893.0635 144.8296 898.9955 147.9746 904.9495 144.8696 903.7925 151.4836"></polygon>
            </g>
            <g id="clouds" transform="translate(62.000000, 346.000000)" fill="#ECF6F5">
                <path d="M0.9009,124.668 L96.2089,124.668 C96.2089,124.668 90.8549,106.463 76.3979,106.463 C76.3979,106.463 75.3269,78.085 44.2719092,86.116 C44.2719092,86.116 32.4919,90.935 31.4209,100.038 C31.4209,100.038 12.1449,99.502 13.2159,113.423 C13.2159,113.423 -0.7051,113.959 0.9009,124.668" id="Fill-160"></path>
                <path d="M703.333,40.4927 L798.641,40.4927 C798.641,40.4927 793.286,22.2877 778.829,22.2877 C778.829,22.2877 777.759,-6.0903 746.703,1.9417 C746.703,1.9417 734.924,6.7607 733.853,15.8627 C733.853,15.8627 714.577,15.3277 715.648,29.2487 C715.648,29.2487 701.727,29.7847 703.333,40.4927" id="Fill-162"></path>
                <path d="M283.8652,42.3145 L207.7452,42.3145 C207.7452,42.3145 212.0222,27.7745 223.5682,27.7745 C223.5682,27.7745 224.4232,5.1095 249.2262,11.5245 C249.2262,11.5245 258.6352,15.3735 259.4902,22.6435 C259.4902,22.6435 274.8852,22.2155 274.0302,33.3345 C274.0302,33.3345 285.1482,33.7615 283.8652,42.3145" id="Fill-164"></path>
                <path d="M180.1016,173.9443 L215.7616,173.9443 C215.7616,173.9443 219.0626,169.6523 212.1286,169.6523 C212.1286,169.6523 210.4776,162.7183 205.1956,165.3603 C205.1956,165.3603 202.2236,156.1143 193.9696,158.4263 C185.7146,160.7373 187.0356,166.0003 187.0356,166.0003 C187.0356,166.0003 177.7896,165.0293 180.1016,173.9443" id="Fill-166"></path>
                <path d="M785.9141,161.6143 L873.4601,161.6143 C873.4601,161.6143 881.5661,151.0763 864.5431,151.0763 C864.5431,151.0763 860.4901,134.0533 847.5201,140.5383 C847.5201,140.5383 840.2251,117.8413 819.9601,123.5153 C799.6941,129.1903 802.9361,142.1103 802.9361,142.1103 C802.9361,142.1103 780.2401,139.7283 785.9141,161.6143" id="Fill-168"></path>
                <path d="M565.6152,189.8906 L672.8452,189.8906 C672.8452,189.8906 682.7742,176.9826 661.9242,176.9826 C661.9242,176.9826 656.9602,156.1326 641.0732,164.0756 C641.0732,164.0756 632.1372,136.2746 607.3152,143.2246 C582.4942,150.1756 586.4662,165.9996 586.4662,165.9996 C586.4662,165.9996 558.6652,163.0826 565.6152,189.8906" id="Fill-170"></path>
                <path d="M468.2256,94.9346 L532.1646,94.9346 C532.1646,94.9346 528.9396,79.2136 517.5356,82.4716 C517.5356,82.4716 518.6506,71.8126 509.4076,74.8856 C509.4076,74.8856 500.7376,57.5456 489.8996,72.1766 C489.8996,72.1766 477.9786,70.1016 480.1466,80.6216 C480.1466,80.6216 464.4326,88.4326 468.2256,94.9346" id="Fill-172"></path>
                <path d="M731.291,280.2188 L770.919,280.2188 C770.919,280.2188 768.92,270.4748 761.852,272.4938 C761.852,272.4938 762.544,265.8888 756.814,267.7928 C756.814,267.7928 751.441,257.0458 744.725,266.1138 C744.725,266.1138 737.336,264.8278 738.68,271.3478 C738.68,271.3478 728.94,276.1888 731.291,280.2188" id="Fill-174"></path>
            </g>
            <g id="moon" transform="translate(764.000000, 88.000000)">
                <path d="M83.5322,0.9106 C76.6282,1.3066 69.9552,2.4896 63.5942,4.3626 C45.0772,19.8096 33.0932,42.6466 31.9402,68.0316 C21.0472,70.3266 14.3792,84.8946 16.9862,101.0516 C19.6482,117.5396 30.9592,129.4286 42.2512,127.6056 C44.7722,127.1986 47.0772,126.1396 49.1102,124.5606 C53.9852,131.1426 59.7432,137.0136 66.2062,141.9976 C65.8592,143.6296 65.7122,145.3566 65.8142,147.1396 C66.3342,156.1956 72.8782,163.1846 80.4302,162.7506 C84.9422,162.4926 88.7812,159.6306 91.0402,155.4466 C101.6602,159.1486 113.1672,160.8716 125.0952,160.1876 C131.9992,159.7906 138.6722,158.6086 145.0332,156.7356 C165.7532,139.4506 178.3042,112.9166 176.6392,83.9096 C173.8482,35.2796 132.1632,-1.8804 83.5322,0.9106" id="Fill-177" fill="#F2E7DB"></path>
                <path d="M77.666,38.2437 C81.998,37.9947 86.02,39.5107 89.044,42.1607 C85.965,37.9757 80.907,35.3767 75.334,35.6967 C66.572,36.1997 59.878,43.7097 60.381,52.4717 C60.635,56.9007 62.685,60.7977 65.777,63.5077 C64.016,61.1137 62.896,58.2057 62.713,55.0177 C62.211,46.2567 68.905,38.7467 77.666,38.2437" id="Fill-179" fill="#ADA39C"></path>
                <path d="M92.1084,50.6499 C91.9244,47.4619 90.8054,44.5539 89.0444,42.1599 C86.0194,39.5099 81.9984,37.9949 77.6664,38.2439 C68.9054,38.7469 62.2114,46.2559 62.7124,55.0179 C62.8964,58.2059 64.0154,61.1139 65.7774,63.5079 C68.8014,66.1569 72.8234,67.6729 77.1554,67.4239 C85.9164,66.9209 92.6114,59.4109 92.1084,50.6499" id="Fill-181" fill="#C7BAB2"></path>
                <path d="M40.7383,86.0381 C43.4253,85.8841 45.9543,86.6061 48.0673,87.9441 C45.6533,85.5321 42.2693,84.1101 38.5943,84.3211 C31.7563,84.7141 26.5303,90.5761 26.9233,97.4141 C27.1613,101.5661 29.4223,105.1141 32.6873,107.1801 C30.6093,105.1031 29.2483,102.2951 29.0663,99.1311 C28.6743,92.2931 33.8993,86.4311 40.7383,86.0381" id="Fill-183" fill="#ADA39C"></path>
                <path d="M51.6885,95.9932 C51.5065,92.8292 50.1445,90.0212 48.0675,87.9442 C45.9545,86.6062 43.4245,85.8842 40.7385,86.0382 C33.8995,86.4302 28.6735,92.2932 29.0665,99.1312 C29.2485,102.2952 30.6095,105.1032 32.6875,107.1802 C34.7995,108.5172 37.3295,109.2412 40.0165,109.0862 C46.8555,108.6942 52.0815,102.8312 51.6885,95.9932" id="Fill-185" fill="#C7BAB2"></path>
                <path d="M125.0947,160.1875 C112.0157,160.9375 99.4417,158.7955 87.9897,154.3205 C86.5617,155.8635 84.5617,156.8805 82.2967,157.0105 C77.6547,157.2775 73.6737,153.7295 73.4077,149.0865 C73.3677,148.3995 73.4217,147.7305 73.5397,147.0825 C60.0317,138.6865 48.9127,126.7205 41.5627,112.4215 C41.1187,112.4845 40.6717,112.5415 40.2157,112.5675 C31.4547,113.0705 23.9457,106.3755 23.4427,97.6145 C23.0617,90.9855 26.8047,85.0795 32.4427,82.3755 C32.2427,80.6615 32.0877,78.9335 31.9877,77.1885 C30.3227,48.1815 42.8747,21.6475 63.5937,4.3625 C25.1567,15.6815 -1.8613,52.2925 0.5337,94.0175 C3.3247,142.6475 45.0107,179.8085 93.6407,177.0165 C113.2637,175.8905 131.0167,168.4285 145.0327,156.7355 C138.6717,158.6085 131.9987,159.7915 125.0947,160.1875" id="Fill-187" fill="#CEC5B7"></path>
                <path d="M82.4443,144.2676 C83.8743,144.1856 85.2153,144.6136 86.2923,145.3906 C85.1173,144.1026 83.3943,143.3346 81.5183,143.4426 C78.2123,143.6326 75.6853,146.4666 75.8763,149.7716 C75.9833,151.6486 76.9433,153.2716 78.3573,154.2916 C77.4623,153.3096 76.8833,152.0276 76.8013,150.5976 C76.6113,147.2916 79.1373,144.4576 82.4443,144.2676" id="Fill-189" fill="#ADA39C"></path>
                <path d="M87.8477,149.085 C87.7657,147.655 87.1877,146.372 86.2917,145.391 C85.2147,144.613 83.8737,144.186 82.4447,144.268 C79.1377,144.458 76.6117,147.292 76.8017,150.598 C76.8837,152.027 77.4617,153.31 78.3577,154.292 C79.4347,155.069 80.7757,155.497 82.2047,155.415 C85.5117,155.225 88.0377,152.391 87.8477,149.085" id="Fill-191" fill="#C7BAB2"></path>
                <path d="M88.9678,106.2764 C88.7318,102.1684 91.8708,98.6474 95.9788,98.4114 C97.1368,98.3444 98.2438,98.5544 99.2478,98.9704 C97.9728,98.1544 96.4428,97.7114 94.8148,97.8054 C90.7068,98.0414 87.5678,101.5624 87.8038,105.6704 C87.9728,108.6204 89.8408,111.0634 92.3998,112.1224 C90.4548,110.8784 89.1108,108.7574 88.9678,106.2764" id="Fill-193" fill="#ADA39C"></path>
                <path d="M102.6797,104.8164 C102.5367,102.3364 101.1927,100.2144 99.2477,98.9704 C98.2437,98.5544 97.1367,98.3444 95.9787,98.4114 C91.8707,98.6474 88.7317,102.1684 88.9677,106.2764 C89.1107,108.7574 90.4547,110.8784 92.3997,112.1224 C93.4037,112.5384 94.5107,112.7484 95.6687,112.6814 C99.7767,112.4454 102.9157,108.9244 102.6797,104.8164" id="Fill-195" fill="#C7BAB2"></path>
                <path d="M107.7832,18.6689 C109.0512,18.5959 110.2462,18.9289 111.2502,19.5499 C110.0902,18.3749 108.4532,17.6809 106.6752,17.7829 C103.3912,17.9719 100.8832,20.7859 101.0712,24.0689 C101.1872,26.0849 102.2952,27.8049 103.8902,28.7919 C102.9082,27.7969 102.2652,26.4599 102.1792,24.9549 C101.9912,21.6709 104.5002,18.8569 107.7832,18.6689" id="Fill-197" fill="#ADA39C"></path>
                <path d="M112.9609,23.3867 C112.8739,21.8817 112.2319,20.5437 111.2499,19.5497 C110.2459,18.9287 109.0509,18.5957 107.7829,18.6687 C104.4999,18.8577 101.9909,21.6717 102.1799,24.9547 C102.2659,26.4597 102.9079,27.7977 103.8909,28.7917 C104.8949,29.4127 106.0899,29.7447 107.3569,29.6727 C110.6409,29.4837 113.1489,26.6697 112.9609,23.3867" id="Fill-199" fill="#C7BAB2"></path>
                <path d="M140.2725,108.6226 C142.6855,108.4846 144.9595,109.1256 146.8645,110.3176 C144.6725,108.0756 141.5665,106.7496 138.1895,106.9436 C131.9945,107.2996 127.2605,112.6096 127.6165,118.8056 C127.8335,122.5866 129.9025,125.8156 132.8855,127.6836 C131.0555,125.8116 129.8605,123.3026 129.6995,120.4836 C129.3435,114.2886 134.0775,108.9786 140.2725,108.6226" id="Fill-201" fill="#ADA39C"></path>
                <path d="M150.0508,117.5171 C149.8888,114.6981 148.6948,112.1891 146.8638,110.3181 C144.9598,109.1251 142.6858,108.4841 140.2728,108.6221 C134.0768,108.9781 129.3438,114.2881 129.6988,120.4841 C129.8608,123.3031 131.0558,125.8111 132.8858,127.6841 C134.7898,128.8751 137.0638,129.5171 139.4778,129.3781 C145.6728,129.0231 150.4058,123.7121 150.0508,117.5171" id="Fill-203" fill="#C7BAB2"></path>
                <path d="M136.542,57.4028 C138.583,57.2858 140.482,57.9568 141.961,59.1418 C140.408,57.1798 137.961,55.9758 135.273,56.1308 C130.893,56.3818 127.545,60.1368 127.797,64.5168 C127.931,66.8568 129.07,68.8948 130.766,70.2548 C129.787,69.0178 129.163,67.4828 129.065,65.7898 C128.814,61.4088 132.161,57.6538 136.542,57.4028" id="Fill-205" fill="#ADA39C"></path>
                <path d="M143.6602,63.6069 C143.5632,61.9139 142.9382,60.3779 141.9612,59.1419 C140.4822,57.9569 138.5832,57.2859 136.5422,57.4029 C132.1612,57.6539 128.8142,61.4089 129.0652,65.7899 C129.1632,67.4829 129.7872,69.0179 130.7652,70.2539 C132.2432,71.4399 134.1422,72.1109 136.1832,71.9939 C140.5642,71.7429 143.9122,67.9869 143.6602,63.6069" id="Fill-207" fill="#C7BAB2"></path>
            </g>
        </g>
        <g id="midground" transform="translate(-0.000300, 0.000000)">
            <g id="mountain" transform="translate(0.000000, 325.858000)">
                <polygon id="Fill-2" fill="#C24727" points="275.565 342.2847 131.392 212.9417 0 394.7437 0 512.5407 275.565 512.5407 275.565 582.9787 655.01 582.9787 838.823 582.9787 655.01 252.4897 586.353 339.5067 434.84 0.0007"></polygon>
                <polygon id="Fill-3" fill="#ECF6F5" points="366.4319 147.0102 377.3069 216.4462 411.3269 147.0102 430.4109 249.6352 451.3139 153.3232 479.3669 197.3612 502.3559 151.2872 434.8399 0.0002"></polygon>
                <polygon id="Fill-4" fill="#AB3E20" points="434.8401 0.0004 615.6231 302.4094 586.3531 339.5064"></polygon>
                <polygon id="Fill-5" fill="#AB3E20" points="131.3924 212.9418 293.9964 302.6748 275.5644 342.2848"></polygon>
                <polygon id="Fill-6" fill="#AB3E20" points="655.0101 252.4897 997.6661 582.9787 838.8221 582.9787"></polygon>
                <polygon id="Fill-7" fill="#C3CCCD" points="502.3558 151.287 536.1458 191.432 530.4678 159.964 434.8398 0"></polygon>
                <polygon id="Fill-8" fill="#ECF6F5" points="62.7723 309.0609 116.4173 281.0819 135.8813 309.0609 152.6613 269.0009 200.9863 316.6549 193.8783 269.0009 131.3923 212.9419"></polygon>
                <polygon id="Fill-9" fill="#C3CCCD" points="212.6941 257.809 226.4911 273.028 193.8791 269.001 131.3921 212.942"></polygon>
                <polygon id="Fill-10" fill="#ECF6F5" points="655.0101 252.4897 603.0501 318.3437 629.0311 307.0427 642.1951 329.1007 651.4161 306.2547 672.6871 329.1007 681.6351 300.3607"></polygon>
                <polygon id="Fill-11" fill="#C3CCCD" points="699.219 295.1283 706.202 312.1593 681.635 300.3603 655.01 252.4893"></polygon>
            </g>
            <g id="ground" transform="translate(0.000300, 0.000000)">
                <g id="Group-14" transform="translate(0.000000, 838.000000)">
                    <mask id="mask-2" fill="white">
                        <use xlink:href="#path-1"></use>
                    </mask>
                    <g id="Clip-13"></g>
                    <path d="M538.7119,153.6504 C538.7119,69.0114 470.0989,0.3984 385.4599,0.3984 L-0.0001,0.3984 L-0.0001,43.6424 L367.4149,43.6424 C448.3899,43.6424 514.6889,106.4464 520.2769,186.0004 L538.7119,186.0004 L538.7119,153.6504 Z" id="Fill-12" fill="#4BA246" mask="url(#mask-2)"></path>
                </g>
                <path d="M367.415,881.6426 L0,881.6426 L0,1023.9996 L520.277,1023.9996 C514.688,944.4466 448.39,881.6426 367.415,881.6426" id="Fill-15" fill="#A45E3F"></path>
                <path d="M520.5977,941.6396 L1023.9997,941.6396 L1023.9997,908.8366 L481.5947,908.8366 C417.9927,908.8366 366.4317,960.3976 366.4317,1023.9996 L410.1827,1023.9996 C424.3087,976.3796 468.3927,941.6396 520.5977,941.6396" id="Fill-17" fill="#4BA246"></path>
                <path d="M1024,941.6396 L520.598,941.6396 C468.393,941.6396 424.309,976.3796 410.183,1023.9996 L1024,1023.9996 L1024,941.6396 Z" id="Fill-19" fill="#A45E3F"></path>
                <mask id="mask-4" fill="white">
                    <use xlink:href="#path-3"></use>
                </mask>
                <g id="Clip-22"></g>
                <polygon id="Fill-21" fill="#4BA246" mask="url(#mask-4)" points="0 1024 1024 1024 1024 984.007 0 984.007"></polygon>
            </g>
            <g id="trees" transform="translate(253.661600, 703.600600)">
                <polygon id="Fill-24" fill="#A13B22" points="94.9027 146.0504 109.6147 146.0504 109.6147 84.7224 94.9027 84.7224"></polygon>
                <polygon id="Fill-25" fill="#85BA43" points="102.2586 -5.68434189e-14 116.2466 53.151 130.2346 106.303 102.2586 106.303 74.2826 106.303 88.2706 53.151"></polygon>
                <polygon id="Fill-26" fill="#6D9B36" points="102.2586 -5.68434189e-14 91.4576 106.303 74.2826 106.303"></polygon>
                <polygon id="Fill-27" fill="#A13B22" points="133.3907 163.8804 148.1027 163.8804 148.1027 102.5514 133.3907 102.5514"></polygon>
                <polygon id="Fill-28" fill="#85BA43" points="140.7469 17.8301 154.7349 70.9811 168.7229 124.1331 140.7469 124.1331 112.7699 124.1331 126.7589 70.9811"></polygon>
                <polygon id="Fill-29" fill="#6D9B36" points="140.7469 17.8301 129.9459 124.1331 112.7699 124.1331"></polygon>
                <polygon id="Fill-30" fill="#A13B22" points="181.3907 172.6704 192.9157 172.6704 192.9157 124.6274 181.3907 124.6274"></polygon>
                <polygon id="Fill-31" fill="#85BA43" points="187.1536 58.2598 198.1116 99.8968 209.0696 141.5338 187.1536 141.5338 165.2376 141.5338 176.1956 99.8968"></polygon>
                <polygon id="Fill-32" fill="#6D9B36" points="187.1536 58.2598 178.6926 141.5338 165.2376 141.5338"></polygon>
                <polygon id="Fill-33" fill="#A13B22" points="52.9387 169.1584 67.6507 169.1584 67.6507 107.8304 52.9387 107.8304"></polygon>
                <polygon id="Fill-34" fill="#85BA43" points="60.2948 23.1074 74.2828 76.2584 88.2708 129.4104 60.2948 129.4104 32.3178 129.4104 46.3068 76.2584"></polygon>
                <polygon id="Fill-35" fill="#6D9B36" points="60.2948 23.1074 49.4938 129.4104 32.3178 129.4104"></polygon>
                <polygon id="Fill-36" fill="#A13B22" points="80.9147 300.6244 95.6267 300.6244 95.6267 239.2954 80.9147 239.2954"></polygon>
                <polygon id="Fill-37" fill="#85BA43" points="88.2708 154.5732 102.2588 207.7242 116.2468 260.8762 88.2708 260.8762 60.2948 260.8762 74.2828 207.7242"></polygon>
                <polygon id="Fill-38" fill="#6D9B36" points="88.2708 154.5732 77.4698 260.8762 60.2948 260.8762"></polygon>
                <polygon id="Fill-39" fill="#A13B22" points="17.1147 306.4734 29.3257 306.4734 29.3257 255.5714 17.1147 255.5714"></polygon>
                <polygon id="Fill-40" fill="#85BA43" points="23.22 185.2529 34.83 229.3679 46.44 273.4829 23.22 273.4829 1.42108547e-14 273.4829 11.61 229.3679"></polygon>
                <polygon id="Fill-41" fill="#6D9B36" points="23.22 185.2529 14.255 273.4829 1.42108547e-14 273.4829"></polygon>
                <polygon id="Fill-42" fill="#A13B22" points="140.9727 263.0144 155.6847 263.0144 155.6847 201.6864 140.9727 201.6864"></polygon>
                <polygon id="Fill-43" fill="#85BA43" points="148.3289 116.9639 162.3169 170.1149 176.3049 223.2669 148.3289 223.2669 120.3529 223.2669 134.3409 170.1149"></polygon>
                <polygon id="Fill-44" fill="#6D9B36" points="148.3289 116.9639 137.5279 223.2669 120.3529 223.2669"></polygon>
                <polygon id="Fill-45" fill="#A13B22" points="197.1357 233.6234 209.0687 233.6234 209.0687 183.8794 197.1357 183.8794"></polygon>
                <polygon id="Fill-46" fill="#85BA43" points="203.1024 115.1611 214.4484 158.2721 225.7934 201.3841 203.1024 201.3841 180.4114 201.3841 191.7564 158.2721"></polygon>
                <polygon id="Fill-47" fill="#6D9B36" points="203.1024 115.1611 194.3414 201.3841 180.4114 201.3841"></polygon>
                <polygon id="Fill-48" fill="#A13B22" points="235.2167 237.2724 247.1497 237.2724 247.1497 187.5294 235.2167 187.5294"></polygon>
                <polygon id="Fill-49" fill="#85BA43" points="241.1829 118.8105 252.5289 161.9215 263.8739 205.0335 241.1829 205.0335 218.4909 205.0335 229.8369 161.9215"></polygon>
                <polygon id="Fill-50" fill="#6D9B36" points="241.1829 118.8105 232.4219 205.0335 218.4909 205.0335"></polygon>
                <polygon id="Fill-51" fill="#A13B22" points="180.4107 308.4514 192.3437 308.4514 192.3437 258.7084 180.4107 258.7084"></polygon>
                <polygon id="Fill-52" fill="#85BA43" points="186.3773 189.9892 197.7233 233.1002 209.0693 276.2122 186.3773 276.2122 163.6863 276.2122 175.0313 233.1002"></polygon>
                <polygon id="Fill-53" fill="#6D9B36" points="186.3773 189.9892 177.6173 276.2122 163.6863 276.2122"></polygon>
            </g>
            <g id="house-5" transform="translate(605.792300, 739.893600)">
                <polygon id="Fill-84" fill="#2D1946" points="116.3652 1.42108547e-14 137.4792 21.068 137.4792 188.037 116.3652 188.037"></polygon>
                <polygon id="Fill-85" fill="#413059" points="0 188.4184 116.365 188.4184 116.365 0.0004 0 0.0004"></polygon>
                <polygon id="Fill-86" fill="#FCC586" points="31.004 31.4794 41.8 31.4794 41.8 9.7584 31.004 9.7584"></polygon>
                <polygon id="Fill-87" fill="#FCC586" points="52.904 31.4794 63.7 31.4794 63.7 9.7584 52.904 9.7584"></polygon>
                <polygon id="Fill-88" fill="#FCC586" points="73.629 31.4794 84.426 31.4794 84.426 9.7584 73.629 9.7584"></polygon>
                <polygon id="Fill-89" fill="#FCC586" points="52.784 63.4174 63.581 63.4174 63.581 41.6974 52.784 41.6974"></polygon>
                <polygon id="Fill-90" fill="#FCC586" points="73.629 63.4174 84.426 63.4174 84.426 41.6974 73.629 41.6974"></polygon>
                <polygon id="Fill-91" fill="#FCC586" points="73.629 95.4834 84.426 95.4834 84.426 73.7624 73.629 73.7624"></polygon>
                <polygon id="Fill-92" fill="#231F20" points="73.602 127.2934 84.398 127.2934 84.398 105.5724 73.602 105.5724"></polygon>
                <polygon id="Fill-93" fill="#FCC586" points="73.629 159.2314 84.426 159.2314 84.426 137.5104 73.629 137.5104"></polygon>
                <polygon id="Fill-94" fill="#231F20" points="31.18 63.4174 41.976 63.4174 41.976 41.6974 31.18 41.6974"></polygon>
                <polygon id="Fill-95" fill="#FCC586" points="9.574 63.4174 20.371 63.4174 20.371 41.6974 9.574 41.6974"></polygon>
                <polygon id="Fill-96" fill="#FCC586" points="52.409 95.3554 63.206 95.3554 63.206 73.6344 52.409 73.6344"></polygon>
                <polygon id="Fill-97" fill="#FCC586" points="52.409 127.2934 63.206 127.2934 63.206 105.5724 52.409 105.5724"></polygon>
                <polygon id="Fill-98" fill="#FCC586" points="52.409 159.2314 63.206 159.2314 63.206 137.5104 52.409 137.5104"></polygon>
                <polygon id="Fill-99" fill="#231F20" points="52.409 188.4184 63.206 188.4184 63.206 169.8304 52.409 169.8304"></polygon>
                <polygon id="Fill-100" fill="#231F20" points="95.012 31.4794 105.808 31.4794 105.808 9.7584 95.012 9.7584"></polygon>
                <polygon id="Fill-101" fill="#231F20" points="9.574 31.4794 20.371 31.4794 20.371 9.7584 9.574 9.7584"></polygon>
            </g>
            <g id="house-4" transform="translate(694.125300, 771.373000)">
                <polygon id="Fill-102" fill="#2D1946" points="95.459 0 116.391 21.274 116.391 156.558 95.459 156.558"></polygon>
                <polygon id="Fill-103" fill="#57476B" points="0 156.939 95.459 156.939 95.459 0.001 0 0.001"></polygon>
                <polygon id="Fill-104" fill="#FCC586" points="10.586 31.938 21.383 31.938 21.383 10.218 10.586 10.218"></polygon>
                <polygon id="Fill-105" fill="#231F20" points="10.586 63.876 21.383 63.876 21.383 42.155 10.586 42.155"></polygon>
                <polygon id="Fill-106" fill="#FCC586" points="10.558 96.108 21.354 96.108 21.354 74.387 10.558 74.387"></polygon>
                <polygon id="Fill-107" fill="#FCC586" points="10.586 128.341 21.383 128.341 21.383 106.62 10.586 106.62"></polygon>
                <polygon id="Fill-108" fill="#FCC586" points="31.189 128.341 41.986 128.341 41.986 106.62 31.189 106.62"></polygon>
                <polygon id="Fill-109" fill="#231F20" points="41.986 156.939 52.782 156.939 52.782 137.945 41.986 137.945"></polygon>
                <polygon id="Fill-110" fill="#231F20" points="31.189 95.814 41.986 95.814 41.986 74.093 31.189 74.093"></polygon>
                <polygon id="Fill-111" fill="#FCC586" points="31.189 64.004 41.986 64.004 41.986 42.283 31.189 42.283"></polygon>
                <polygon id="Fill-112" fill="#231F20" points="31.189 31.938 41.986 31.938 41.986 10.218 31.189 10.218"></polygon>
                <polygon id="Fill-113" fill="#FCC586" points="53.068 31.938 63.865 31.938 63.865 10.218 53.068 10.218"></polygon>
                <polygon id="Fill-114" fill="#FCC586" points="53.068 63.876 63.865 63.876 63.865 42.155 53.068 42.155"></polygon>
                <polygon id="Fill-115" fill="#FCC586" points="53.068 95.814 63.865 95.814 63.865 74.093 53.068 74.093"></polygon>
                <polygon id="Fill-116" fill="#FCC586" points="53.068 127.752 63.865 127.752 63.865 106.031 53.068 106.031"></polygon>
                <polygon id="Fill-117" fill="#FCC586" points="74.197 127.752 84.993 127.752 84.993 106.031 74.197 106.031"></polygon>
                <polygon id="Fill-118" fill="#231F20" points="74.197 95.814 84.993 95.814 84.993 74.093 74.197 74.093"></polygon>
                <polygon id="Fill-119" fill="#FCC586" points="74.197 64.675 84.993 64.675 84.993 42.954 74.197 42.954"></polygon>
                <polygon id="Fill-120" fill="#FCC586" points="74.197 31.938 84.993 31.938 84.993 10.218 74.197 10.218"></polygon>
            </g>
            <g id="house-3" transform="translate(789.507300, 835.146500)">
                <polygon id="Fill-121" fill="#6C5E7E" points="0 93.1655 74.344 93.1655 74.344 0.0005 0 0.0005"></polygon>
                <polygon id="Fill-122" fill="#2D1946" points="74.3436 -2.13162821e-14 84.7426 10.655 84.7426 93.165 74.3436 93.165"></polygon>
                <polygon id="Fill-123" fill="#231F20" points="31.473 93.1895 42.27 93.1895 42.27 74.1955 31.473 74.1955"></polygon>
                <polygon id="Fill-124" fill="#231F20" points="10.397 32.0405 21.194 32.0405 21.194 10.3195 10.397 10.3195"></polygon>
                <polygon id="Fill-125" fill="#FCC586" points="31.901 32.0405 42.698 32.0405 42.698 10.3195 31.901 10.3195"></polygon>
                <polygon id="Fill-126" fill="#FCC586" points="52.602 32.0405 63.399 32.0405 63.399 10.3195 52.602 10.3195"></polygon>
                <polygon id="Fill-127" fill="#FCC586" points="53.234 63.9785 64.031 63.9785 64.031 42.2575 53.234 42.2575"></polygon>
                <polygon id="Fill-128" fill="#231F20" points="31.723 63.9785 42.519 63.9785 42.519 42.2575 31.723 42.2575"></polygon>
                <polygon id="Fill-129" fill="#FCC586" points="10.397 63.9785 21.194 63.9785 21.194 42.2575 10.397 42.2575"></polygon>
            </g>
            <g id="house-2" transform="translate(539.698300, 803.310500)">
                <polygon id="Fill-130" fill="#57476B" points="0 125.0015 95.106 125.0015 95.106 0.0005 0 0.0005"></polygon>
                <polygon id="Fill-131" fill="#2D1946" points="95.1057 -1.42108547e-14 116.1437 21.271 116.1437 125.001 95.1057 125.001"></polygon>
                <polygon id="Fill-132" fill="#231F20" points="10.065 32.7375 20.862 32.7375 20.862 11.0165 10.065 11.0165"></polygon>
                <polygon id="Fill-133" fill="#FCC586" points="31.44 32.0665 42.237 32.0665 42.237 10.3455 31.44 10.3455"></polygon>
                <polygon id="Fill-134" fill="#FCC586" points="52.556 32.0665 63.352 32.0665 63.352 10.3455 52.556 10.3455"></polygon>
                <polygon id="Fill-135" fill="#FCC586" points="73.83 31.9385 84.627 31.9385 84.627 10.2175 73.83 10.2175"></polygon>
                <polygon id="Fill-136" fill="#FCC586" points="73.83 63.8765 84.627 63.8765 84.627 42.1555 73.83 42.1555"></polygon>
                <polygon id="Fill-137" fill="#FCC586" points="73.83 95.4475 84.627 95.4475 84.627 73.7265 73.83 73.7265"></polygon>
                <polygon id="Fill-138" fill="#231F20" points="52.556 64.1705 63.352 64.1705 63.352 42.4495 52.556 42.4495"></polygon>
                <polygon id="Fill-139" fill="#FCC586" points="53.306 95.4475 64.102 95.4475 64.102 73.7265 53.306 73.7265"></polygon>
                <polygon id="Fill-140" fill="#FCC586" points="10.065 64.1705 20.862 64.1705 20.862 42.4495 10.065 42.4495"></polygon>
                <polygon id="Fill-141" fill="#231F20" points="10.065 95.4475 20.862 95.4475 20.862 73.7265 10.065 73.7265"></polygon>
                <polygon id="Fill-142" fill="#FCC586" points="31.44 64.1705 42.237 64.1705 42.237 42.4495 31.44 42.4495"></polygon>
                <polygon id="Fill-143" fill="#FCC586" points="31.44 95.4475 42.237 95.4475 42.237 73.7265 31.44 73.7265"></polygon>
                <polygon id="Fill-144" fill="#231F20" points="42.154 125.0015 52.951 125.0015 52.951 106.3895 42.154 106.3895"></polygon>
            </g>
            <g id="house-1" transform="translate(863.851300, 867.186500)">
                <polygon id="Fill-145" fill="#81748F" points="0 61.1255 74.086 61.1255 74.086 0.0005 0 0.0005"></polygon>
                <polygon id="Fill-146" fill="#2D1946" points="74.0855 0 84.7635 10.556 84.7635 61.125 74.0855 61.125"></polygon>
                <polygon id="Fill-147" fill="#231F20" points="31.644 61.1255 42.441 61.1255 42.441 42.1315 31.644 42.1315"></polygon>
                <polygon id="Fill-148" fill="#231F20" points="10.503 31.9385 21.3 31.9385 21.3 10.2175 10.503 10.2175"></polygon>
                <polygon id="Fill-149" fill="#FCC586" points="31.616 31.9385 42.412 31.9385 42.412 10.2175 31.616 10.2175"></polygon>
                <polygon id="Fill-150" fill="#FCC586" points="52.85 31.9385 63.647 31.9385 63.647 10.2175 52.85 10.2175"></polygon>
            </g>
        </g>
        <g id="foreground" transform="translate(96.000000, 806.000000)">
            <g id="pad" transform="translate(0.103800, 171.083800)">
                <polygon id="Fill-54" fill="#AAA9AD" points="104.26 29.8322 -7.10542736e-15 29.8322 10.505 7.0482 93.814 7.0482"></polygon>
                <polygon id="Fill-55" fill="#8E8D91" points="104.26 29.8322 117.68 17.7492 103.134 0.0002 93.814 7.0482"></polygon>
                <polygon id="Fill-56" fill="#9B9A9E" points="10.5046 7.048 23.1606 0 103.1336 0 93.8136 7.048"></polygon>
            </g>
            <g id="Rocket">
                <path d="M65.7729,122.54 L67.2789,135.599 L65.2489,133.681 L63.0329,162.808 L61.5549,137.163 L60.6059,139.38 L61.1329,122.54 C61.1329,122.54 63.5529,121.108 65.7729,122.54" id="Fill-57" fill="#D4A72E"></path>
                <path d="M65.082,122.3662 L66.109,131.8462 L64.725,130.4542 L63.213,151.6002 L62.205,132.9822 L61.557,134.5922 L61.917,122.3662 C61.917,122.3662 63.567,121.3272 65.082,122.3662" id="Fill-59" fill="#F1EB9B"></path>
                <path d="M52.917,122.54 L51.41,135.599 L53.441,133.681 L55.657,162.808 L57.134,137.163 L58.084,139.38 L57.557,122.54 C57.557,122.54 55.137,121.108 52.917,122.54" id="Fill-61" fill="#D4A72E"></path>
                <path d="M53.6079,122.3662 L52.5799,131.8462 L53.9649,130.4542 L55.4769,151.6002 L56.4849,132.9822 L57.1329,134.5922 L56.7729,122.3662 C56.7729,122.3662 55.1219,121.3272 53.6079,122.3662" id="Fill-63" fill="#F1EB9B"></path>
                <path d="M82.2686,96.0811 L79.0176,57.3081 C78.9696,56.7311 78.6726,56.2051 78.2046,55.8651 L66.0006,47.0091 C62.0306,44.1291 56.6586,44.1291 52.6896,47.0091 L40.4856,55.8651 C40.0176,56.2051 39.7206,56.7311 39.6726,57.3081 L36.4216,96.0811 C36.3236,97.2401 37.2386,98.2341 38.4016,98.2341 C39.2706,98.2341 40.0386,98.7991 40.2986,99.6271 L48.2966,125.1311 C48.7256,126.4961 50.4106,126.9761 51.4936,126.0401 L52.0416,125.5661 C56.2366,121.9421 62.4536,121.9421 66.6476,125.5661 L67.1966,126.0401 C68.2786,126.9761 69.9646,126.4961 70.3926,125.1311 L78.3916,99.6271 C78.6516,98.7991 79.4196,98.2341 80.2886,98.2341 C81.4516,98.2341 82.3656,97.2401 82.2686,96.0811" id="Fill-65" fill="#13141A"></path>
                <path d="M73.2812,58.3945 L63.2482,51.1135 C60.9202,49.4245 57.7692,49.4245 55.4422,51.1135 L45.4082,58.3945 L42.1402,95.6815 L51.3302,121.2365 C55.9332,117.2595 62.7562,117.2595 67.3602,121.2365 L76.5492,95.6815 L73.2812,58.3945 Z" id="Fill-67" fill="#95A4C8"></path>
                <path d="M72.959,76.041 C72.959,85.786 66.864,93.687 59.345,93.687 C51.826,93.687 45.731,85.786 45.731,76.041 C45.731,66.295 51.826,58.395 59.345,58.395 C66.864,58.395 72.959,66.295 72.959,76.041" id="Fill-69" fill="#13141A"></path>
                <path d="M69.1411,76.041 C69.1411,83.054 64.7551,88.738 59.3451,88.738 C53.9341,88.738 49.5491,83.054 49.5491,76.041 C49.5491,69.028 53.9341,63.343 59.3451,63.343 C64.7551,63.343 69.1411,69.028 69.1411,76.041" id="Fill-71" fill="#83D1DD"></path>
                <path d="M65.7988,76.041 C65.7988,77.807 64.6948,79.237 63.3328,79.237 C61.9698,79.237 60.8658,77.807 60.8658,76.041 C60.8658,74.275 61.9698,72.844 63.3328,72.844 C64.6948,72.844 65.7988,74.275 65.7988,76.041" id="Fill-73" fill="#ECF6F5"></path>
                <path d="M119.5112,82.6279 C115.8972,62.4159 110.5062,41.4879 101.4492,22.9939 C90.5022,0.6399 76.5492,0.1519 76.5492,0.1519 C76.5502,0.1579 76.9212,2.8289 77.5072,7.0669 C79.5302,21.6979 84.1232,55.0729 84.9762,62.5819 C86.0772,72.2709 79.4022,72.0159 79.4022,72.0159 C79.8332,79.4379 77.9792,89.7529 78.2232,88.6099 C78.4682,87.4669 88.7252,89.5489 88.9942,93.8769 C89.1702,96.6989 90.1152,102.5079 93.6012,102.0679 C99.9072,101.2739 106.0622,101.0299 112.2202,99.5639 C112.4652,99.5059 112.7062,99.4409 112.9442,99.3709 C116.3992,98.3519 119.0752,96.0739 119.9512,92.2929 C120.6852,89.1239 120.0672,85.7369 119.5112,82.6279" id="Fill-75" fill="#13141A"></path>
                <path d="M0.5894,84.7773 C3.2404,64.4173 7.6324,43.2573 15.8024,24.3543 C25.6764,1.5063 39.5904,0.3573 39.5904,0.3573 C39.5904,0.3633 39.3464,3.0483 38.9624,7.3103 C37.6354,22.0203 34.6304,55.5753 34.1334,63.1173 C33.4934,72.8463 40.1494,72.2753 40.1494,72.2753 C40.0704,79.7093 42.4124,89.9243 42.1144,88.7953 C41.8164,87.6653 31.6684,90.2303 31.6054,94.5663 C31.5634,97.3943 30.8944,103.2413 27.3924,102.9673 C21.0544,102.4733 14.8964,102.5213 8.6754,101.3483 C8.4274,101.3023 8.1834,101.2493 7.9424,101.1903 C4.4434,100.3373 1.6624,98.1883 0.6084,94.4533 C-0.2756,91.3233 0.1814,87.9103 0.5894,84.7773" id="Fill-77" fill="#13141A"></path>
                <path d="M79.2266,8.875 L90.9276,88.843 C91.4476,92.401 94.7686,94.854 98.3226,94.305 L101.3566,93.836 C106.4266,93.053 109.8696,88.265 108.9886,83.211 C105.3966,62.604 95.3246,14.189 79.2266,8.875" id="Fill-79" fill="#95A4C8"></path>
                <path d="M37.0981,10.4209 L29.2651,90.4689 C28.8931,94.2619 25.5031,97.0249 21.7131,96.6239 L17.8871,96.2189 C13.4301,95.7469 10.2261,91.7169 10.7721,87.2679 C13.2241,67.2469 20.9661,16.6159 37.0981,10.4209" id="Fill-81" fill="#95A4C8"></path>
            </g>
        </g>
    </g>
</svg>