<?xml version="1.0" encoding="UTF-8"?>
<svg width="1024px" height="1024px" viewBox="0 0 1024 1024" version="1.1" xmlns="http://www.w3.org/2000/svg" xmlns:xlink="http://www.w3.org/1999/xlink">
    <title>Space</title>
    <g id="Space" stroke="none" stroke-width="1" fill="none" fill-rule="evenodd">
        <g id="back" transform="translate(-0.025395, -0.535093)">
            <rect id="backSky" fill="#CCDFE3" x="0.0253950467" y="0.535092652" width="1025" height="1024"></rect>
            <g id="clouds" transform="translate(78.025395, 341.535093)" fill="#ECF6F5">
                <path d="M515.060151,254.966818 L477.111538,254.966818 C477.111538,254.966818 479.243779,247.68171 484.999884,247.68171 C484.999884,247.68171 485.426133,236.325659 497.791338,239.539824 C497.791338,239.539824 502.48207,241.468324 502.908319,245.110878 C502.908319,245.110878 510.583291,244.896433 510.157042,250.467487 C510.157042,250.467487 515.699773,250.681431 515.060151,254.966818" id="c9"></path>
                <path d="M0.128990843,105.983582 L95.4369908,105.983582 C95.4369908,105.983582 90.0829908,87.7785822 75.6259908,87.7785822 C75.6259908,87.7785822 74.5549908,59.4005822 43.5,67.4315822 C43.5,67.4315822 31.7199908,72.2505822 30.6489908,81.3535822 C30.6489908,81.3535822 11.3729908,80.8175822 12.4439908,94.7385822 C12.4439908,94.7385822 -1.47700916,95.2745822 0.128990843,105.983582" id="c8"></path>
                <path d="M699.333,40.4927 L794.641,40.4927 C794.641,40.4927 789.286,22.2877 774.829,22.2877 C774.829,22.2877 773.759,-6.0903 742.703,1.9417 C742.703,1.9417 730.924,6.7607 729.853,15.8627 C729.853,15.8627 710.577,15.3277 711.648,29.2487 C711.648,29.2487 697.727,29.7847 699.333,40.4927" id="c7"></path>
                <path d="M317.12,40.9336361 L241,40.9336361 C241,40.9336361 245.277,26.3936361 256.823,26.3936361 C256.823,26.3936361 257.678,3.72863607 282.481,10.1436361 C282.481,10.1436361 291.89,13.9926361 292.745,21.2626361 C292.745,21.2626361 308.14,20.8346361 307.285,31.9536361 C307.285,31.9536361 318.403,32.3806361 317.12,40.9336361" id="c6"></path>
                <path d="M223.37113,212.88913 L259.03113,212.88913 C259.03113,212.88913 262.33213,208.59713 255.39813,208.59713 C255.39813,208.59713 253.74713,201.66313 248.46513,204.30513 C248.46513,204.30513 245.49313,195.05913 237.23913,197.37113 C228.98413,199.68213 230.30513,204.94513 230.30513,204.94513 C230.30513,204.94513 221.05913,203.97413 223.37113,212.88913" id="c5"></path>
                <path d="M781.9141,161.6143 L869.4601,161.6143 C869.4601,161.6143 877.5661,151.0763 860.5431,151.0763 C860.5431,151.0763 856.4901,134.0533 843.5201,140.5383 C843.5201,140.5383 836.2251,117.8413 815.9601,123.5153 C795.6941,129.1903 798.9361,142.1103 798.9361,142.1103 C798.9361,142.1103 776.2401,139.7283 781.9141,161.6143" id="c4"></path>
                <path d="M561.6152,189.8906 L668.8452,189.8906 C668.8452,189.8906 678.7742,176.9826 657.9242,176.9826 C657.9242,176.9826 652.9602,156.1326 637.0732,164.0756 C637.0732,164.0756 628.1372,136.2746 603.3152,143.2246 C578.4942,150.1756 582.4662,165.9996 582.4662,165.9996 C582.4662,165.9996 554.6652,163.0826 561.6152,189.8906" id="c3"></path>
                <path d="M464.2256,94.9346 L528.1646,94.9346 C528.1646,94.9346 524.9396,79.2136 513.5356,82.4716 C513.5356,82.4716 514.6506,71.8126 505.4076,74.8856 C505.4076,74.8856 496.7376,57.5456 485.8996,72.1766 C485.8996,72.1766 473.9786,70.1016 476.1466,80.6216 C476.1466,80.6216 460.4326,88.4326 464.2256,94.9346" id="c2"></path>
                <path d="M727.291,280.2188 L766.919,280.2188 C766.919,280.2188 764.92,270.4748 757.852,272.4938 C757.852,272.4938 758.544,265.8888 752.814,267.7928 C752.814,267.7928 747.441,257.0458 740.725,266.1138 C740.725,266.1138 733.336,264.8278 734.68,271.3478 C734.68,271.3478 724.94,276.1888 727.291,280.2188" id="c1"></path>
            </g>
            <g id="moon" transform="translate(738.025395, 78.535093)">
                <path d="M83.5322,0.9106 C76.6282,1.3066 69.9552,2.4896 63.5942,4.3626 C45.0772,19.8096 33.0932,42.6466 31.9402,68.0316 C21.0472,70.3266 14.3792,84.8946 16.9862,101.0516 C19.6482,117.5396 30.9592,129.4286 42.2512,127.6056 C44.7722,127.1986 47.0772,126.1396 49.1102,124.5606 C53.9852,131.1426 59.7432,137.0136 66.2062,141.9976 C65.8592,143.6296 65.7122,145.3566 65.8142,147.1396 C66.3342,156.1956 72.8782,163.1846 80.4302,162.7506 C84.9422,162.4926 88.7812,159.6306 91.0402,155.4466 C101.6602,159.1486 113.1672,160.8716 125.0952,160.1876 C131.9992,159.7906 138.6722,158.6086 145.0332,156.7356 C165.7532,139.4506 178.3042,112.9166 176.6392,83.9096 C173.8482,35.2796 132.1632,-1.8804 83.5322,0.9106" id="Fill-177" fill="#F2E7DB"></path>
                <path d="M77.666,38.2437 C81.998,37.9947 86.02,39.5107 89.044,42.1607 C85.965,37.9757 80.907,35.3767 75.334,35.6967 C66.572,36.1997 59.878,43.7097 60.381,52.4717 C60.635,56.9007 62.685,60.7977 65.777,63.5077 C64.016,61.1137 62.896,58.2057 62.713,55.0177 C62.211,46.2567 68.905,38.7467 77.666,38.2437" id="Fill-179" fill="#ADA39C"></path>
                <path d="M92.1084,50.6499 C91.9244,47.4619 90.8054,44.5539 89.0444,42.1599 C86.0194,39.5099 81.9984,37.9949 77.6664,38.2439 C68.9054,38.7469 62.2114,46.2559 62.7124,55.0179 C62.8964,58.2059 64.0154,61.1139 65.7774,63.5079 C68.8014,66.1569 72.8234,67.6729 77.1554,67.4239 C85.9164,66.9209 92.6114,59.4109 92.1084,50.6499" id="Fill-181" fill="#C7BAB2"></path>
                <path d="M40.7383,86.0381 C43.4253,85.8841 45.9543,86.6061 48.0673,87.9441 C45.6533,85.5321 42.2693,84.1101 38.5943,84.3211 C31.7563,84.7141 26.5303,90.5761 26.9233,97.4141 C27.1613,101.5661 29.4223,105.1141 32.6873,107.1801 C30.6093,105.1031 29.2483,102.2951 29.0663,99.1311 C28.6743,92.2931 33.8993,86.4311 40.7383,86.0381" id="Fill-183" fill="#ADA39C"></path>
                <path d="M51.6885,95.9932 C51.5065,92.8292 50.1445,90.0212 48.0675,87.9442 C45.9545,86.6062 43.4245,85.8842 40.7385,86.0382 C33.8995,86.4302 28.6735,92.2932 29.0665,99.1312 C29.2485,102.2952 30.6095,105.1032 32.6875,107.1802 C34.7995,108.5172 37.3295,109.2412 40.0165,109.0862 C46.8555,108.6942 52.0815,102.8312 51.6885,95.9932" id="Fill-185" fill="#C7BAB2"></path>
                <path d="M125.0947,160.1875 C112.0157,160.9375 99.4417,158.7955 87.9897,154.3205 C86.5617,155.8635 84.5617,156.8805 82.2967,157.0105 C77.6547,157.2775 73.6737,153.7295 73.4077,149.0865 C73.3677,148.3995 73.4217,147.7305 73.5397,147.0825 C60.0317,138.6865 48.9127,126.7205 41.5627,112.4215 C41.1187,112.4845 40.6717,112.5415 40.2157,112.5675 C31.4547,113.0705 23.9457,106.3755 23.4427,97.6145 C23.0617,90.9855 26.8047,85.0795 32.4427,82.3755 C32.2427,80.6615 32.0877,78.9335 31.9877,77.1885 C30.3227,48.1815 42.8747,21.6475 63.5937,4.3625 C25.1567,15.6815 -1.8613,52.2925 0.5337,94.0175 C3.3247,142.6475 45.0107,179.8085 93.6407,177.0165 C113.2637,175.8905 131.0167,168.4285 145.0327,156.7355 C138.6717,158.6085 131.9987,159.7915 125.0947,160.1875" id="Fill-187" fill="#CEC5B7"></path>
                <path d="M82.4443,144.2676 C83.8743,144.1856 85.2153,144.6136 86.2923,145.3906 C85.1173,144.1026 83.3943,143.3346 81.5183,143.4426 C78.2123,143.6326 75.6853,146.4666 75.8763,149.7716 C75.9833,151.6486 76.9433,153.2716 78.3573,154.2916 C77.4623,153.3096 76.8833,152.0276 76.8013,150.5976 C76.6113,147.2916 79.1373,144.4576 82.4443,144.2676" id="Fill-189" fill="#ADA39C"></path>
                <path d="M87.8477,149.085 C87.7657,147.655 87.1877,146.372 86.2917,145.391 C85.2147,144.613 83.8737,144.186 82.4447,144.268 C79.1377,144.458 76.6117,147.292 76.8017,150.598 C76.8837,152.027 77.4617,153.31 78.3577,154.292 C79.4347,155.069 80.7757,155.497 82.2047,155.415 C85.5117,155.225 88.0377,152.391 87.8477,149.085" id="Fill-191" fill="#C7BAB2"></path>
                <path d="M88.9678,106.2764 C88.7318,102.1684 91.8708,98.6474 95.9788,98.4114 C97.1368,98.3444 98.2438,98.5544 99.2478,98.9704 C97.9728,98.1544 96.4428,97.7114 94.8148,97.8054 C90.7068,98.0414 87.5678,101.5624 87.8038,105.6704 C87.9728,108.6204 89.8408,111.0634 92.3998,112.1224 C90.4548,110.8784 89.1108,108.7574 88.9678,106.2764" id="Fill-193" fill="#ADA39C"></path>
                <path d="M102.6797,104.8164 C102.5367,102.3364 101.1927,100.2144 99.2477,98.9704 C98.2437,98.5544 97.1367,98.3444 95.9787,98.4114 C91.8707,98.6474 88.7317,102.1684 88.9677,106.2764 C89.1107,108.7574 90.4547,110.8784 92.3997,112.1224 C93.4037,112.5384 94.5107,112.7484 95.6687,112.6814 C99.7767,112.4454 102.9157,108.9244 102.6797,104.8164" id="Fill-195" fill="#C7BAB2"></path>
                <path d="M107.7832,18.6689 C109.0512,18.5959 110.2462,18.9289 111.2502,19.5499 C110.0902,18.3749 108.4532,17.6809 106.6752,17.7829 C103.3912,17.9719 100.8832,20.7859 101.0712,24.0689 C101.1872,26.0849 102.2952,27.8049 103.8902,28.7919 C102.9082,27.7969 102.2652,26.4599 102.1792,24.9549 C101.9912,21.6709 104.5002,18.8569 107.7832,18.6689" id="Fill-197" fill="#ADA39C"></path>
                <path d="M112.9609,23.3867 C112.8739,21.8817 112.2319,20.5437 111.2499,19.5497 C110.2459,18.9287 109.0509,18.5957 107.7829,18.6687 C104.4999,18.8577 101.9909,21.6717 102.1799,24.9547 C102.2659,26.4597 102.9079,27.7977 103.8909,28.7917 C104.8949,29.4127 106.0899,29.7447 107.3569,29.6727 C110.6409,29.4837 113.1489,26.6697 112.9609,23.3867" id="Fill-199" fill="#C7BAB2"></path>
                <path d="M140.2725,108.6226 C142.6855,108.4846 144.9595,109.1256 146.8645,110.3176 C144.6725,108.0756 141.5665,106.7496 138.1895,106.9436 C131.9945,107.2996 127.2605,112.6096 127.6165,118.8056 C127.8335,122.5866 129.9025,125.8156 132.8855,127.6836 C131.0555,125.8116 129.8605,123.3026 129.6995,120.4836 C129.3435,114.2886 134.0775,108.9786 140.2725,108.6226" id="Fill-201" fill="#ADA39C"></path>
                <path d="M150.0508,117.5171 C149.8888,114.6981 148.6948,112.1891 146.8638,110.3181 C144.9598,109.1251 142.6858,108.4841 140.2728,108.6221 C134.0768,108.9781 129.3438,114.2881 129.6988,120.4841 C129.8608,123.3031 131.0558,125.8111 132.8858,127.6841 C134.7898,128.8751 137.0638,129.5171 139.4778,129.3781 C145.6728,129.0231 150.4058,123.7121 150.0508,117.5171" id="Fill-203" fill="#C7BAB2"></path>
                <path d="M136.542,57.4028 C138.583,57.2858 140.482,57.9568 141.961,59.1418 C140.408,57.1798 137.961,55.9758 135.273,56.1308 C130.893,56.3818 127.545,60.1368 127.797,64.5168 C127.931,66.8568 129.07,68.8948 130.766,70.2548 C129.787,69.0178 129.163,67.4828 129.065,65.7898 C128.814,61.4088 132.161,57.6538 136.542,57.4028" id="Fill-205" fill="#ADA39C"></path>
                <path d="M143.6602,63.6069 C143.5632,61.9139 142.9382,60.3779 141.9612,59.1419 C140.4822,57.9569 138.5832,57.2859 136.5422,57.4029 C132.1612,57.6539 128.8142,61.4089 129.0652,65.7899 C129.1632,67.4829 129.7872,69.0179 130.7652,70.2539 C132.2432,71.4399 134.1422,72.1109 136.1832,71.9939 C140.5642,71.7429 143.9122,67.9869 143.6602,63.6069" id="Fill-207" fill="#C7BAB2"></path>
            </g>
        </g>
        <g id="middle" transform="translate(-4.619615, 567.534234)">
            <path d="M327.157966,142.19137 C376.395856,112.237892 404.961255,94.3516139 412.854162,88.5325374 C424.693523,79.8039227 445.767392,48.7964944 452.66388,46.6478856 C457.26154,45.2154798 470.394788,37.3097423 492.063624,22.9306732 C511.026655,43.8559612 526.891899,61.3884723 539.659358,75.5282065 C558.810547,96.7378077 569.393162,85.8052876 573.069737,88.5325374 C576.746312,91.2597872 585.650716,109.134431 594.984561,113.285431 C604.318407,117.436432 677.784333,149.780397 704.746994,158.994673 C722.722101,165.137523 830.679642,201.627887 1028.61961,268.465766 L4.61961495,268.465766 L327.157966,142.19137 Z" id="backMountain" fill="#EDEBEC"></path>
            <path d="M4,268.810534 C176.779108,157.303308 265.942398,99.8861551 271.489871,96.559077 C279.811079,91.5684598 354.934883,140.862574 380.456995,152.603687 C405.979108,164.3448 444.081686,183.666921 453.280101,183.666921 C462.478517,183.666921 498.814185,165.451019 510.614286,165.451019 C518.481019,165.451019 542.641495,181.781315 583.095712,214.441906 C567.318335,243.65669 553.82548,258.403357 542.617148,258.681906 C384.290059,262.616646 281.785905,248.841763 258.941807,255.309271 C233.767757,262.436424 219.651895,266 216.59422,266 L4,268.810534 Z" id="backHillLeft" fill="#8FCDDC"></path>
            <path d="M875.19817,188.465766 C788.904628,159.934188 743.298523,144.194864 738.379856,141.247796 C731.001855,136.827193 590.908906,211.804768 577.691871,216.965766 C568.880515,220.406431 557.18894,234.311811 542.617148,258.681906 L1028.61961,270.465766 L875.19817,188.465766 Z" id="backHillRight" fill="#8FCDDC"></path>
            <g id="midHillMid" transform="translate(0.619615, 177.465766)">
                <g id="Group-Copy-18" transform="translate(375.000000, 10.000000)" fill="#49795A">
                    <polygon id="Path-18" points="4.83120801 0 3.96276822 3.33865829 5 4.08487541 3.28996859 5.11786976 2.03793734 9.18347819 3.28996859 10.763648 1.13994115 12.7328268 -2.68185918e-16 16 10 16 8.2028225 11.6438221 6.48103231 12.137931 8.2028225 10.1168664 7.14016404 6.92781392 5 6.92781392 6.48103231 5.11786976"></polygon>
                    <rect id="Rectangle" x="5" y="16" width="1" height="4"></rect>
                </g>
                <g id="Group-Copy-21" transform="translate(406.000000, 14.000000)" fill="#49795A">
                    <polygon id="Path-18" points="4.83120801 0 3.96276822 3.33865829 5 4.08487541 3.28996859 5.11786976 2.03793734 9.18347819 3.28996859 10.763648 1.13994115 12.7328268 -2.68185918e-16 16 10 16 8.2028225 11.6438221 6.48103231 12.137931 8.2028225 10.1168664 7.14016404 6.92781392 5 6.92781392 6.48103231 5.11786976"></polygon>
                    <rect id="Rectangle" x="5" y="16" width="1" height="4"></rect>
                </g>
                <g id="Group-Copy-22" transform="translate(346.000000, 3.000000)" fill="#49795A">
                    <polygon id="Path-18" points="4.83120801 0 3.96276822 3.33865829 5 4.08487541 3.28996859 5.11786976 2.03793734 9.18347819 3.28996859 10.763648 1.13994115 12.7328268 -2.68185918e-16 16 10 16 8.2028225 11.6438221 6.48103231 12.137931 8.2028225 10.1168664 7.14016404 6.92781392 5 6.92781392 6.48103231 5.11786976"></polygon>
                    <rect id="Rectangle" x="5" y="16" width="1" height="4"></rect>
                </g>
                <g id="Group-Copy-23" transform="translate(489.000000, 26.000000)" fill="#49795A">
                    <polygon id="Path-18" points="4.83120801 0 3.96276822 3.33865829 5 4.08487541 3.28996859 5.11786976 2.03793734 9.18347819 3.28996859 10.763648 1.13994115 12.7328268 -2.68185918e-16 16 10 16 8.2028225 11.6438221 6.48103231 12.137931 8.2028225 10.1168664 7.14016404 6.92781392 5 6.92781392 6.48103231 5.11786976"></polygon>
                    <rect id="Rectangle" x="5" y="16" width="1" height="4"></rect>
                </g>
                <g id="Group-Copy-25" transform="translate(533.000000, 20.000000)" fill="#49795A">
                    <polygon id="Path-18" points="4.83120801 0 3.96276822 3.33865829 5 4.08487541 3.28996859 5.11786976 2.03793734 9.18347819 3.28996859 10.763648 1.13994115 12.7328268 -2.68185918e-16 16 10 16 8.2028225 11.6438221 6.48103231 12.137931 8.2028225 10.1168664 7.14016404 6.92781392 5 6.92781392 6.48103231 5.11786976"></polygon>
                    <rect id="Rectangle" x="5" y="16" width="1" height="4"></rect>
                </g>
                <g id="Group-Copy-26" transform="translate(585.000000, 0.000000)" fill="#49795A">
                    <polygon id="Path-18" points="4.83120801 0 3.96276822 3.33865829 5 4.08487541 3.28996859 5.11786976 2.03793734 9.18347819 3.28996859 10.763648 1.13994115 12.7328268 -2.68185918e-16 16 10 16 8.2028225 11.6438221 6.48103231 12.137931 8.2028225 10.1168664 7.14016404 6.92781392 5 6.92781392 6.48103231 5.11786976"></polygon>
                    <rect id="Rectangle" x="5" y="16" width="1" height="4"></rect>
                </g>
                <g id="Group-Copy-27" transform="translate(644.000000, 12.000000)" fill="#49795A">
                    <polygon id="Path-18" points="4.83120801 0 3.96276822 3.33865829 5 4.08487541 3.28996859 5.11786976 2.03793734 9.18347819 3.28996859 10.763648 1.13994115 12.7328268 -2.68185918e-16 16 10 16 8.2028225 11.6438221 6.48103231 12.137931 8.2028225 10.1168664 7.14016404 6.92781392 5 6.92781392 6.48103231 5.11786976"></polygon>
                    <rect id="Rectangle" x="5" y="16" width="1" height="4"></rect>
                </g>
                <g id="Group-Copy-28" transform="translate(703.000000, 30.000000)" fill="#49795A">
                    <polygon id="Path-18" points="4.83120801 0 3.96276822 3.33865829 5 4.08487541 3.28996859 5.11786976 2.03793734 9.18347819 3.28996859 10.763648 1.13994115 12.7328268 -2.68185918e-16 16 10 16 8.2028225 11.6438221 6.48103231 12.137931 8.2028225 10.1168664 7.14016404 6.92781392 5 6.92781392 6.48103231 5.11786976"></polygon>
                    <rect id="Rectangle" x="5" y="16" width="1" height="4"></rect>
                </g>
                <g id="Group-Copy-29" transform="translate(747.000000, 53.000000)" fill="#49795A">
                    <polygon id="Path-18" points="4.83120801 0 3.96276822 3.33865829 5 4.08487541 3.28996859 5.11786976 2.03793734 9.18347819 3.28996859 10.763648 1.13994115 12.7328268 -2.68185918e-16 16 10 16 8.2028225 11.6438221 6.48103231 12.137931 8.2028225 10.1168664 7.14016404 6.92781392 5 6.92781392 6.48103231 5.11786976"></polygon>
                    <rect id="Rectangle" x="5" y="16" width="1" height="4"></rect>
                </g>
                <g id="Group-Copy-30" transform="translate(674.000000, 25.000000)" fill="#49795A">
                    <polygon id="Path-18" points="4.83120801 0 3.96276822 3.33865829 5 4.08487541 3.28996859 5.11786976 2.03793734 9.18347819 3.28996859 10.763648 1.13994115 12.7328268 -2.68185918e-16 16 10 16 8.2028225 11.6438221 6.48103231 12.137931 8.2028225 10.1168664 7.14016404 6.92781392 5 6.92781392 6.48103231 5.11786976"></polygon>
                    <rect id="Rectangle" x="5" y="16" width="1" height="4"></rect>
                </g>
                <g id="Group-Copy-24" transform="translate(450.000000, 16.000000)" fill="#49795A">
                    <polygon id="Path-18" points="4.83120801 0 3.96276822 3.33865829 5 4.08487541 3.28996859 5.11786976 2.03793734 9.18347819 3.28996859 10.763648 1.13994115 12.7328268 -2.68185918e-16 16 10 16 8.2028225 11.6438221 6.48103231 12.137931 8.2028225 10.1168664 7.14016404 6.92781392 5 6.92781392 6.48103231 5.11786976"></polygon>
                    <rect id="Rectangle" x="5" y="16" width="1" height="4"></rect>
                </g>
                <path d="M243.177816,41 C305.980684,25.767032 344.667068,19.9068315 359.236969,23.4193984 C381.091821,28.6882487 412.873276,37.0993854 436.416317,32.893817 C459.959358,28.6882487 483.986246,44.5590183 492.990234,44.5590183 C501.994222,44.5590183 562.590032,33.2342515 582.377519,23.4193984 C595.569177,16.8761629 607.829039,11.1367484 619.157106,6.20115469 C633.38496,19.5921409 645.289795,28.489695 654.871611,32.893817 C669.244335,39.5 677.754945,44.5590183 691.81462,44.5590183 C701.187737,44.5590183 813.24953,59.2174236 1028,88.5342342 L1028,132 L531.490985,107.945393 L471.247558,101.75453 C434.334244,100.955464 402.725849,100.955464 376.422375,101.75453 C350.1189,102.553597 224.644775,107.63542 0,117 L4,85 L243.177816,41 Z" id="hill2" fill="#568D76"></path>
            </g>
            <g id="midHillLeft" transform="translate(4.619615, 0.465766)">
                <g id="Group" transform="translate(218.000000, 113.000000)" fill="#3A5C46">
                    <polygon id="Path-18" points="8.69617441 0 7.1329828 6.05131816 8.69617441 8.54796017 5.92194347 9.27613894 3.66828722 16.6450542 7.1329828 22.3729115 2.05189406 23.0782485 -4.82734653e-16 29 18 29 14.7650805 21.1044276 11.6658582 21.1044276 14.7650805 18.3368203 12.8522953 12.5566627 9.9970396 13.2793023 11.6658582 9.27613894"></polygon>
                    <rect id="Rectangle" x="8" y="28" width="2" height="8"></rect>
                </g>
                <g id="Group-Copy-3" transform="translate(241.000000, 143.000000)" fill="#3A5C46">
                    <polygon id="Path-18" points="8.69617441 0 7.1329828 6.05131816 8.69617441 8.54796017 5.92194347 9.27613894 3.66828722 16.6450542 7.1329828 22.3729115 2.05189406 23.0782485 -4.82734653e-16 29 18 29 14.7650805 21.1044276 11.6658582 21.1044276 14.7650805 18.3368203 12.8522953 12.5566627 9.9970396 13.2793023 11.6658582 9.27613894"></polygon>
                    <rect id="Rectangle" x="8" y="28" width="2" height="8"></rect>
                </g>
                <g id="Group-Copy-4" transform="translate(266.000000, 156.000000)" fill="#3A5C46">
                    <polygon id="Path-18" points="8.69617441 0 7.1329828 6.05131816 8.69617441 8.54796017 5.92194347 9.27613894 3.66828722 16.6450542 7.1329828 22.3729115 2.05189406 23.0782485 -4.82734653e-16 29 18 29 14.7650805 21.1044276 11.6658582 21.1044276 14.7650805 18.3368203 12.8522953 12.5566627 9.9970396 13.2793023 11.6658582 9.27613894"></polygon>
                    <rect id="Rectangle" x="8" y="28" width="2" height="8"></rect>
                </g>
                <g id="Group-Copy-15" transform="translate(351.000000, 193.000000)" fill="#3A5C46">
                    <polygon id="Path-18" points="8.69617441 0 7.1329828 6.05131816 9 7.40383668 5.92194347 9.27613894 3.66828722 16.6450542 5.92194347 19.5091119 2.05189406 23.0782485 -4.82734653e-16 29 18 29 14.7650805 21.1044276 11.6658582 22 14.7650805 18.3368203 12.8522953 12.5566627 9 12.5566627 11.6658582 9.27613894"></polygon>
                    <rect id="Rectangle" x="8" y="28" width="2" height="8"></rect>
                </g>
                <g id="Group-Copy-16" transform="translate(125.000000, 27.000000)" fill="#3A5C46">
                    <polygon id="Path-18" points="8.69617441 0 7.1329828 6.05131816 9 7.40383668 5.92194347 9.27613894 3.66828722 16.6450542 5.92194347 19.5091119 2.05189406 23.0782485 -4.82734653e-16 29 18 29 14.7650805 21.1044276 11.6658582 22 14.7650805 18.3368203 12.8522953 12.5566627 9 12.5566627 11.6658582 9.27613894"></polygon>
                    <rect id="Rectangle" x="8" y="28" width="2" height="8"></rect>
                </g>
                <g id="Group-Copy-19" transform="translate(88.000000, 0.000000)" fill="#3A5C46">
                    <polygon id="Path-18" points="8.69617441 0 7.1329828 6.05131816 9 7.40383668 5.92194347 9.27613894 3.66828722 16.6450542 5.92194347 19.5091119 2.05189406 23.0782485 -4.82734653e-16 29 18 29 14.7650805 21.1044276 11.6658582 22 14.7650805 18.3368203 12.8522953 12.5566627 9 12.5566627 11.6658582 9.27613894"></polygon>
                    <rect id="Rectangle" x="8" y="28" width="2" height="8"></rect>
                </g>
                <g id="Group-Copy-17" transform="translate(37.000000, 45.000000)" fill="#3A5C46">
                    <polygon id="Path-18" points="8.69617441 0 7.1329828 6.05131816 9 7.40383668 5.92194347 9.27613894 3.66828722 16.6450542 5.92194347 19.5091119 2.05189406 23.0782485 -4.82734653e-16 29 18 29 14.7650805 21.1044276 11.6658582 22 14.7650805 18.3368203 12.8522953 12.5566627 9 12.5566627 11.6658582 9.27613894"></polygon>
                    <rect id="Rectangle" x="8" y="28" width="2" height="8"></rect>
                </g>
                <g id="Group-Copy-18" transform="translate(296.000000, 143.000000)" fill="#3A5C46">
                    <polygon id="Path-18" points="8.69617441 0 7.1329828 6.05131816 9 7.40383668 5.92194347 9.27613894 3.66828722 16.6450542 5.92194347 19.5091119 2.05189406 23.0782485 -4.82734653e-16 29 18 29 14.7650805 21.1044276 11.6658582 22 14.7650805 18.3368203 12.8522953 12.5566627 9 12.5566627 11.6658582 9.27613894"></polygon>
                    <rect id="Rectangle" x="8" y="28" width="2" height="8"></rect>
                </g>
                <g id="Group-Copy-20" transform="translate(376.000000, 210.000000)" fill="#3A5C46">
                    <polygon id="Path-18" points="8.69617441 0 7.1329828 6.05131816 9 7.40383668 5.92194347 9.27613894 3.66828722 16.6450542 5.92194347 19.5091119 2.05189406 23.0782485 -4.82734653e-16 29 18 29 14.7650805 21.1044276 11.6658582 22 14.7650805 18.3368203 12.8522953 12.5566627 9 12.5566627 11.6658582 9.27613894"></polygon>
                    <rect id="Rectangle" x="8" y="28" width="2" height="8"></rect>
                </g>
                <g id="Group-Copy" transform="translate(193.000000, 95.000000)" fill="#3A5C46">
                    <polygon id="Path-18" points="8.69617441 0 7.1329828 6.05131816 8.69617441 8.54796017 5.92194347 9.27613894 3.66828722 16.6450542 7.1329828 22.3729115 2.05189406 23.0782485 -4.82734653e-16 29 18 29 14.7650805 21.1044276 11.6658582 21.1044276 14.7650805 18.3368203 12.8522953 12.5566627 9.9970396 13.2793023 11.6658582 9.27613894"></polygon>
                    <rect id="Rectangle" x="8" y="28" width="2" height="8"></rect>
                </g>
                <g id="Group-Copy-2" transform="translate(161.000000, 67.000000)" fill="#3A5C46">
                    <polygon id="Path-18" points="8.69617441 0 7.1329828 6.05131816 8.69617441 8.54796017 5.92194347 9.27613894 3.66828722 16.6450542 7.1329828 22.3729115 2.05189406 23.0782485 -4.82734653e-16 29 18 29 14.7650805 21.1044276 11.6658582 21.1044276 14.7650805 18.3368203 12.8522953 12.5566627 9.9970396 13.2793023 11.6658582 9.27613894"></polygon>
                    <rect id="Rectangle" x="8" y="28" width="2" height="8"></rect>
                </g>
                <path d="M31.4086583,90.8488736 C79.437126,45.1842787 105.431823,23.885711 109.392748,26.9531705 C115.334137,31.5543599 165.270471,88.8081203 178.325428,105.353965 C198.751829,118.361967 212.922658,131.915922 220.694105,141.319897 C228.465553,150.723872 265.879504,190.420334 277.512723,190.420334 C289.145941,190.420334 298.426967,165.437073 308.400311,173.999188 C318.373654,182.561303 312.225267,192.667067 333.761254,209.795364 C355.29724,226.923661 409.222692,256.819074 437.285961,265.534234 C455.994807,271.344341 468.802726,275.751106 475.709717,278.75453 C432.963281,275.751106 407.893215,274.249394 400.499518,274.249394 C389.408973,274.249394 266.516362,282.34705 248.931083,287.329414 C237.207564,290.65099 154.230537,304.027487 0,327.458905 L0,105.353965 L31.4086583,90.8488736 Z" id="hill1" fill="#42684E"></path>
            </g>
            <g id="midHillRight" transform="translate(532.110600, 57.465766)">
                <g id="Group-Copy-5" transform="translate(39.509015, 179.000000)" fill="#3A5C46">
                    <polygon id="Path-18" points="8.69617441 0 7.1329828 6.05131816 8.69617441 8.54796017 5.92194347 9.27613894 3.66828722 16.6450542 7.1329828 22.3729115 2.05189406 23.0782485 -4.82734653e-16 29 18 29 14.7650805 21.1044276 11.6658582 21.1044276 14.7650805 18.3368203 12.8522953 12.5566627 9.9970396 13.2793023 11.6658582 9.27613894"></polygon>
                    <rect id="Rectangle" x="8" y="28" width="2" height="8"></rect>
                </g>
                <g id="Group-Copy-6" transform="translate(78.509015, 161.000000)" fill="#3A5C46">
                    <polygon id="Path-18" points="8.69617441 0 7.1329828 6.05131816 8.69617441 8.54796017 5.92194347 9.27613894 3.66828722 16.6450542 7.1329828 22.3729115 2.05189406 23.0782485 -4.82734653e-16 29 18 29 14.7650805 21.1044276 11.6658582 21.1044276 14.7650805 18.3368203 12.8522953 12.5566627 9.9970396 13.2793023 11.6658582 9.27613894"></polygon>
                    <rect id="Rectangle" x="8" y="28" width="2" height="8"></rect>
                </g>
                <g id="Group-Copy-7" transform="translate(154.509015, 137.000000)" fill="#3A5C46">
                    <polygon id="Path-18" points="8.69617441 0 7.1329828 6.05131816 8.69617441 8.54796017 5.92194347 9.27613894 3.66828722 16.6450542 7.1329828 22.3729115 2.05189406 23.0782485 -4.82734653e-16 29 18 29 14.7650805 21.1044276 11.6658582 21.1044276 14.7650805 18.3368203 12.8522953 12.5566627 9.9970396 13.2793023 11.6658582 9.27613894"></polygon>
                    <rect id="Rectangle" x="8" y="28" width="2" height="8"></rect>
                </g>
                <g id="Group-Copy-8" transform="translate(250.509015, 74.000000)" fill="#3A5C46">
                    <polygon id="Path-18" points="8.69617441 0 7.1329828 6.05131816 8.69617441 8.54796017 5.92194347 9.27613894 3.66828722 16.6450542 7.1329828 22.3729115 2.05189406 23.0782485 -4.82734653e-16 29 18 29 14.7650805 21.1044276 11.6658582 21.1044276 14.7650805 18.3368203 12.8522953 12.5566627 9.9970396 13.2793023 11.6658582 9.27613894"></polygon>
                    <rect id="Rectangle" x="8" y="28" width="2" height="8"></rect>
                </g>
                <g id="Group-Copy-11" transform="translate(364.509015, 0.000000)" fill="#3A5C46">
                    <polygon id="Path-18" points="8.69617441 0 7.1329828 6.05131816 8.69617441 8.54796017 5.92194347 9.27613894 3.66828722 16.6450542 7.1329828 22.3729115 2.05189406 23.0782485 -4.82734653e-16 29 18 29 14.7650805 21.1044276 11.6658582 21.1044276 14.7650805 18.3368203 12.8522953 12.5566627 9.9970396 13.2793023 11.6658582 9.27613894"></polygon>
                    <rect id="Rectangle" x="8" y="28" width="2" height="8"></rect>
                </g>
                <g id="Group-Copy-12" transform="translate(322.509015, 38.000000)" fill="#3A5C46">
                    <polygon id="Path-18" points="8.69617441 0 7.1329828 6.05131816 9 7.40383668 5.92194347 9.27613894 3.66828722 16.6450542 5.92194347 19.5091119 2.05189406 23.0782485 -4.82734653e-16 29 18 29 14.7650805 21.1044276 11.6658582 22 14.7650805 18.3368203 12.8522953 12.5566627 9 12.5566627 11.6658582 9.27613894"></polygon>
                    <rect id="Rectangle" x="8" y="28" width="2" height="8"></rect>
                </g>
                <g id="Group-Copy-14" transform="translate(411.509015, 29.000000)" fill="#3A5C46">
                    <polygon id="Path-18" points="8.69617441 0 7.1329828 6.05131816 9 7.40383668 5.92194347 9.27613894 3.66828722 16.6450542 5.92194347 19.5091119 2.05189406 23.0782485 -4.82734653e-16 29 18 29 14.7650805 21.1044276 11.6658582 22 14.7650805 18.3368203 12.8522953 12.5566627 9 12.5566627 11.6658582 9.27613894"></polygon>
                    <rect id="Rectangle" x="8" y="28" width="2" height="8"></rect>
                </g>
                <g id="Group-Copy-13" transform="translate(445.509015, 58.000000)" fill="#3A5C46">
                    <polygon id="Path-18" points="8.69617441 0 7.1329828 6.05131816 9 7.40383668 5.92194347 9.27613894 3.66828722 16.6450542 5.92194347 19.5091119 2.05189406 23.0782485 -4.82734653e-16 29 18 29 14.7650805 21.1044276 11.6658582 22 14.7650805 18.3368203 12.8522953 12.5566627 9 12.5566627 11.6658582 9.27613894"></polygon>
                    <rect id="Rectangle" x="8" y="28" width="2" height="8"></rect>
                </g>
                <g id="Group-Copy-9" transform="translate(201.509015, 130.000000)" fill="#3A5C46">
                    <polygon id="Path-18" points="8.69617441 0 7.1329828 6.05131816 8.69617441 8.54796017 5.92194347 9.27613894 3.66828722 16.6450542 7.1329828 22.3729115 2.05189406 23.0782485 -4.82734653e-16 29 18 29 14.7650805 21.1044276 11.6658582 21.1044276 14.7650805 18.3368203 12.8522953 12.5566627 9.9970396 13.2793023 11.6658582 9.27613894"></polygon>
                    <rect id="Rectangle" x="8" y="28" width="2" height="8"></rect>
                </g>
                <g id="Group-Copy-10" transform="translate(115.509015, 155.000000)" fill="#3A5C46">
                    <polygon id="Path-18" points="8.69617441 0 7.1329828 6.05131816 8.69617441 8.54796017 5.92194347 9.27613894 3.66828722 16.6450542 7.1329828 22.3729115 2.05189406 23.0782485 -4.82734653e-16 29 18 29 14.7650805 21.1044276 11.6658582 21.1044276 14.7650805 18.3368203 12.8522953 12.5566627 9.9970396 13.2793023 11.6658582 9.27613894"></polygon>
                    <rect id="Rectangle" x="8" y="28" width="2" height="8"></rect>
                </g>
                <path d="M469.575075,113.552985 C458.684305,93.7445545 447.643809,81.5602261 436.453587,77 C421.240302,66.8142092 404.254836,26.1018829 391.181016,26.1018829 C378.107196,26.1018829 347.849711,46.2586006 340.290634,55.8676378 C332.731556,65.476675 335.060464,77 314.093164,77 C293.125863,77 296.565935,97.8510758 287.304509,97.8510758 C278.043082,97.8510758 247.988886,112.77635 241.160303,120.061226 C234.331719,127.346102 233.509659,159.5 209.964099,159.5 C186.418538,159.5 143.415805,181.090204 123.380626,181.090204 C103.345446,181.090204 61.2666931,205.320047 47.0677268,208.534234 C37.6017492,210.677026 21.9125069,217.147412 0,227.945393 L112.46049,234.991751 L265.816519,251.746514 L496.739514,279.685751 L496.739514,130.009354 L469.575075,113.552985 Z" id="hill3" fill="#42684E"></path>
            </g>
            <g id="midSurface" transform="translate(4.000000, 266.000000)">
                <path d="M0.619614945,50.3784812 C187.345416,19.2001028 292.946863,3.61091354 317.423955,3.61091354 C354.139593,3.61091354 412.172877,-7.25670997 446.263442,8.71515994 C498.921466,15.7863363 629.732067,19.405819 647.648178,19.405819 C665.56429,19.405819 701.816755,32.1763671 727.074578,29.4256843 C752.3324,26.6750015 991.765668,37.7848758 1024.61961,62.4657658 C1025.36511,85.5813691 1025.44194,128.248036 1024.85011,190.465766 C362.176169,190.96247 20.7660028,190.96247 0.619614945,190.465766 C0.619614945,174.089742 0.619614945,127.39398 0.619614945,50.3784812 Z" id="midFloor" fill="#34493D"></path>
                <path d="M205.196917,43.7872629 C240.02433,43.7872629 264.626425,43.7872629 279.003203,43.7872629 C300.568369,43.7872629 319.798397,46.4476695 319.798397,37.0405328 C319.798397,31.9639671 295.867784,23.0101448 248.006557,10.1790658 L258.774519,8.71515994 C330.995816,16.893022 368.14283,25.1749907 370.215563,33.5610662 C373.324662,46.1401793 340.966115,46.1938336 338.27894,52.2242856 C335.591765,58.2547376 335.446397,65.0004767 355.962534,68.9418785 C376.478672,72.8832802 451.717692,68.9418785 464.13098,68.9418785 C476.544267,68.9418785 572.892669,65.2038621 580.445059,65.2038621 C587.99745,65.2038621 666.634552,62.7390464 698.978003,65.2038621 C731.321454,67.6686779 780.978011,62.7390464 773.209844,74.7206538 C762.661933,83.5506064 724.019412,90.9160559 681.275687,96.617161 C638.531962,102.318266 493.867702,126.438688 455.92878,126.438688 C417.989858,126.438688 301.509455,144.985674 260.80226,126.438688 C233.66413,114.07403 215.129015,86.5235551 205.196917,43.7872629 Z" id="midRiver" fill="#8FCEDC"></path>
            </g>
        </g>
        <g id="front" transform="translate(0.000000, 463.000000)">
            <g id="frontHillLeft">
                <path d="M0,144 C66.4817593,247.015068 105.129019,304.103353 115.94178,315.264856 C132.160921,332.007109 139.062907,333.980097 146.903929,315.264856 C154.744951,296.549614 162.106365,303.376906 162.106365,303.376906 C162.106365,303.376906 186.307317,392.618596 213.648149,422.120932 C240.988981,451.623267 236.071364,457.01468 263.134732,457.01468 C282.036906,467.628351 294.907881,487.697177 322.788929,483.903843 C353.097439,478.259017 404.601022,463.993149 409.671841,463.993149 C413.052387,463.993149 494.588131,496.299066 654.279071,560.910899 L0,561 L0,144 Z" id="fHill2" fill="#23302A"></path>
                <g id="frontTree4" transform="translate(55.000000, 0.000000)">
                    <polygon id="Path-10" fill="#23302A" points="64.9374277 0 58 342 75 342"></polygon>
                    <polygon id="Path-11" fill="#23302A" points="67.7491896 179 99 145 65 170.670857"></polygon>
                    <polygon id="Path-12" fill="#23302A" points="68 240.861558 118 189 68 253"></polygon>
                    <polygon id="Path-13" fill="#23302A" points="62 228 13 167 62 215.726164"></polygon>
                    <polygon id="Path-14" fill="#23302A" points="64 155 29 120 64 145.138299"></polygon>
                    <polygon id="Path-15" fill="#23302A" points="66 110 83 91 66 100.5"></polygon>
                    <polygon id="Path-16" fill="#23302A" points="64 85 45 65 64 76.5081577"></polygon>
                    <polygon id="Path-17" fill="#23302A" points="61.7560992 299 27 257 66 292.908954"></polygon>
                    <path d="M95.4096547,147.857319 C91.7487103,141.230372 95.218509,135.944598 105.819051,132 C108.121295,138.994888 107.099327,147.724802 102.384144,148.669616 C99.2406892,149.299492 96.9158593,149.028726 95.4096547,147.857319 Z" id="Path-19" fill="#607600"></path>
                    <path d="M115.409655,189.857319 C111.74871,183.230372 115.218509,177.944598 125.819051,174 C128.121295,180.994888 127.099327,189.724802 122.384144,190.669616 C119.240689,191.299492 116.915859,191.028726 115.409655,189.857319 Z" id="Path-19-Copy" fill="#607600"></path>
                    <path d="M89.6696906,212.706408 C86.0109838,206.126498 89.4501492,200.89402 99.987187,197.008973 C102.294994,203.950355 101.299731,212.603874 96.6107986,213.529051 C93.484844,214.145836 91.1711414,213.871622 89.6696906,212.706408 Z" id="Path-19-Copy-3" fill="#607600" transform="translate(94.717796, 205.429123) rotate(-35.000000) translate(-94.717796, -205.429123) "></path>
                    <path d="M33.3453013,188.504228 C29.7058884,181.947276 33.1695247,176.709451 43.7362103,172.790753 C46.0214319,179.713686 44.9924452,188.358601 40.2933191,189.299895 C37.1605684,189.927425 34.8445625,189.662203 33.3453013,188.504228 Z" id="Path-19-Copy-4" fill="#607600" transform="translate(38.425274, 181.210737) rotate(14.000000) translate(-38.425274, -181.210737) "></path>
                    <path d="M40.9517786,129.486529 C37.3123657,122.929577 40.7760021,117.691752 51.3426877,113.773054 C53.6279093,120.695986 52.5989226,129.340902 47.8997965,130.282196 C44.7670458,130.909726 42.4510398,130.644503 40.9517786,129.486529 Z" id="Path-19-Copy-5" fill="#607600" transform="translate(46.031751, 122.193038) rotate(14.000000) translate(-46.031751, -122.193038) "></path>
                    <path d="M18.1718204,121.944105 C14.5371938,115.347926 17.9736853,110.091322 28.4812947,106.174293 C30.7690328,113.135573 29.7620618,121.820722 25.0876304,122.757356 C21.9713428,123.381779 19.6660727,123.110695 18.1718204,121.944105 Z" id="Path-19-Copy-7" fill="#607600" transform="translate(23.214090, 114.629100) rotate(-82.000000) translate(-23.214090, -114.629100) "></path>
                    <path d="M68.3345066,38.7027562 C64.705671,32.1429616 68.1713147,26.8962113 78.7314376,22.9625052 C81.0070662,29.890066 79.9700264,38.5448159 75.2746618,39.4919724 C72.1444188,40.12341 69.8310337,39.860338 68.3345066,38.7027562 Z" id="Path-19-Copy-10" fill="#607600" transform="translate(73.416307, 31.394389) rotate(30.000000) translate(-73.416307, -31.394389) "></path>
                    <path d="M4.48016109,171.882158 C0.845534551,165.285979 4.282026,160.029375 14.7896354,156.112346 C17.0773735,163.073626 16.0704025,171.758775 11.3959711,172.695409 C8.27968348,173.319832 5.97441348,173.048748 4.48016109,171.882158 Z" id="Path-19-Copy-8" fill="#607600" transform="translate(9.522431, 164.567153) rotate(-82.000000) translate(-9.522431, -164.567153) "></path>
                    <path d="M36.3878922,267.194494 C32.7484793,260.637542 36.2121157,255.399717 46.7788013,251.481018 C49.0640228,258.403951 48.0350362,267.048866 43.3359101,267.990161 C40.2031594,268.61769 37.8871534,268.352468 36.3878922,267.194494 Z" id="Path-19-Copy-6" fill="#607600" transform="translate(41.467865, 259.901002) rotate(14.000000) translate(-41.467865, -259.901002) "></path>
                    <path d="M81.4096547,91.8573193 C77.7487103,85.2303716 81.218509,79.9445985 91.8190508,76 C94.1212949,82.9948882 93.0993272,91.724802 88.3841444,92.6696158 C85.2406892,93.2994916 82.9158593,93.0287261 81.4096547,91.8573193 Z" id="Path-19-Copy-2" fill="#607600"></path>
                </g>
                <g id="frontTree3" transform="translate(178.000000, 204.000000)">
                    <polygon id="Path-10" fill="#23302A" points="64.9374277 0 58 304 75 304"></polygon>
                    <polygon id="Path-11" fill="#23302A" points="67.7491896 159 99 129 65 151.650756"></polygon>
                    <polygon id="Path-12" fill="#23302A" points="68 214.1892 118 168 68 225"></polygon>
                    <polygon id="Path-13" fill="#23302A" points="62 203 13 149 62 192.134637"></polygon>
                    <polygon id="Path-14" fill="#23302A" points="64 138 29 107 64 129.265351"></polygon>
                    <polygon id="Path-15" fill="#23302A" points="66 98 83 81 66 89.5"></polygon>
                    <polygon id="Path-16" fill="#23302A" points="64 76 45 58 64 68.3573419"></polygon>
                    <polygon id="Path-17" fill="#23302A" points="61.7560992 266 27 229 66 260.634078"></polygon>
                    <path d="M95.4096547,130.991752 C91.7487103,125.144446 95.218509,120.480528 105.819051,117 C108.121295,123.17196 107.099327,130.874825 102.384144,131.708485 C99.2406892,132.264257 96.9158593,132.025347 95.4096547,130.991752 Z" id="leaf1" fill="#607600"></path>
                    <path d="M115.409655,168.991752 C111.74871,163.144446 115.218509,158.480528 125.819051,155 C128.121295,161.17196 127.099327,168.874825 122.384144,169.708485 C119.240689,170.264257 116.915859,170.025347 115.409655,168.991752 Z" id="Path-19-Copy" fill="#607600"></path>
                    <path d="M90.2937597,189.027076 C86.4252896,182.746739 89.465576,178.083918 99.4146188,175.038615 C102.000441,181.582951 101.493317,189.539334 97.0240856,190.150747 C94.0445978,190.558355 91.8011559,190.183798 90.2937597,189.027076 Z" id="Path-19-Copy-3" fill="#607600" transform="translate(94.823358, 182.674337) rotate(-35.000000) translate(-94.823358, -182.674337) "></path>
                    <path d="M33.2012503,167.737123 C29.7565209,161.961004 33.3342452,157.180761 43.9344231,153.396393 C46.0242219,159.535528 44.7764521,167.302952 40.0833334,168.26834 C36.9545876,168.911933 34.6605599,168.73486 33.2012503,167.737123 Z" id="Path-19-Copy-4" fill="#607600" transform="translate(38.423234, 161.021639) rotate(14.000000) translate(-38.423234, -161.021639) "></path>
                    <path d="M40.8077276,115.276946 C37.3629983,109.500827 40.9407226,104.720584 51.5409005,100.936216 C53.6306993,107.075351 52.3829294,114.842775 47.6898108,115.808163 C44.561065,116.451756 42.2670373,116.274683 40.8077276,115.276946 Z" id="Path-19-Copy-5" fill="#607600" transform="translate(46.029711, 108.561462) rotate(14.000000) translate(-46.029711, -108.561462) "></path>
                    <path d="M18.8556606,109.075114 C15.5160508,102.437473 18.4976103,97.2448061 27.8003391,93.4971126 C29.9454069,100.478444 29.1811518,109.129481 25.0303845,109.992519 C22.2632063,110.567877 20.204965,110.262076 18.8556606,109.075114 Z" id="Path-19-Copy-7" fill="#607600" transform="translate(23.248003, 101.885697) rotate(-82.000000) translate(-23.248003, -101.885697) "></path>
                    <path d="M38.6325018,64.6857339 C35.292892,58.0480929 38.2744514,52.8554256 47.5771802,49.107732 C49.7222481,56.0890631 48.9579929,64.7401 44.8072256,65.603138 C42.0400475,66.1784966 39.9818062,65.8726952 38.6325018,64.6857339 Z" id="Path-19-Copy-9" fill="#607600" transform="translate(43.024844, 57.496316) rotate(-82.000000) translate(-43.024844, -57.496316) "></path>
                    <path d="M68.1740041,34.8506829 C64.9615778,29.0121303 68.583388,24.0358683 79.0394347,19.9218969 C80.918549,26.1626748 79.493914,34.1460901 74.8834061,35.2402227 C71.8097342,35.9696444 69.5732668,35.8397978 68.1740041,34.8506829 Z" id="Path-19-Copy-10" fill="#607600" transform="translate(73.442639, 27.813259) rotate(30.000000) translate(-73.442639, -27.813259) "></path>
                    <path d="M5.16400135,153.464495 C1.82439151,146.826854 4.80595099,141.634187 14.1086798,137.886493 C16.2537477,144.867824 15.4894925,153.518861 11.3387252,154.381899 C8.57154702,154.957258 6.51330573,154.651456 5.16400135,153.464495 Z" id="Path-19-Copy-8" fill="#607600" transform="translate(9.556344, 146.275077) rotate(-82.000000) translate(-9.556344, -146.275077) "></path>
                    <path d="M81.4096547,81.9917523 C77.7487103,76.1444455 81.218509,71.4805281 91.8190508,68 C94.1212949,74.1719602 93.0993272,81.8748253 88.3841444,82.7084845 C85.2406892,83.2642573 82.9158593,83.0253466 81.4096547,81.9917523 Z" id="Path-19-Copy-2" fill="#607600"></path>
                </g>
            </g>
            <g id="frontHillRight" transform="translate(277.512723, 63.000000)">
                <path d="M229.117817,446.947752 C312.030547,431.672798 353.486912,424.035321 353.486912,424.035321 C353.486912,424.035321 444.669039,414.930913 469.588208,407.874559 C494.507377,400.818205 637.758256,336.173152 661.866391,306.257285 C685.974526,276.341418 705.501811,234.828004 705.501811,227.919837 C705.501811,221.01167 721.670414,190.467401 746.487277,176 C746.79461,197.810723 746.79461,305.144056 746.487277,498 L370.052585,497.910899 L-5.68434189e-14,497.910899 L229.117817,446.947752 Z" id="fHill1" fill="#23302A"></path>
                <g id="frontTree2" transform="translate(452.487277, 102.000000)">
                    <polygon id="Path-10" fill="#23302A" points="51.9374277 0 45 342 62 342"></polygon>
                    <polygon id="Path-11" fill="#23302A" points="54.7491896 179 86 145 52 170.670857"></polygon>
                    <polygon id="Path-12" fill="#23302A" points="55 240.861558 105 189 55 253"></polygon>
                    <polygon id="Path-13" fill="#23302A" points="49 228 0 167 49 215.726164"></polygon>
                    <polygon id="Path-14" fill="#23302A" points="51 155 16 120 51 145.138299"></polygon>
                    <polygon id="Path-15" fill="#23302A" points="53 110 70 91 53 100.5"></polygon>
                    <polygon id="Path-16" fill="#23302A" points="51 85 32 65 51 76.5081577"></polygon>
                    <polygon id="Path-17" fill="#23302A" points="48.7560992 299 14 257 53 292.908954"></polygon>
                    <path d="M82.4096547,147.857319 C78.7487103,141.230372 82.218509,135.944598 92.8190508,132 C95.1212949,138.994888 94.0993272,147.724802 89.3841444,148.669616 C86.2406892,149.299492 83.9158593,149.028726 82.4096547,147.857319 Z" id="Path-19" fill="#607600"></path>
                    <path d="M102.409655,189.857319 C98.7487103,183.230372 102.218509,177.944598 112.819051,174 C115.121295,180.994888 114.099327,189.724802 109.384144,190.669616 C106.240689,191.299492 103.915859,191.028726 102.409655,189.857319 Z" id="Path-19-Copy" fill="#607600"></path>
                    <path d="M76.6696906,212.706408 C73.0109838,206.126498 76.4501492,200.89402 86.987187,197.008973 C89.2949937,203.950355 88.2997306,212.603874 83.6107986,213.529051 C80.484844,214.145836 78.1711414,213.871622 76.6696906,212.706408 Z" id="Path-19-Copy-3" fill="#607600" transform="translate(81.717796, 205.429123) rotate(-35.000000) translate(-81.717796, -205.429123) "></path>
                    <path d="M20.3453013,188.504228 C16.7058884,181.947276 20.1695247,176.709451 30.7362103,172.790753 C33.0214319,179.713686 31.9924452,188.358601 27.2933191,189.299895 C24.1605684,189.927425 21.8445625,189.662203 20.3453013,188.504228 Z" id="Path-19-Copy-4" fill="#607600" transform="translate(25.425274, 181.210737) rotate(14.000000) translate(-25.425274, -181.210737) "></path>
                    <path d="M27.9517786,129.486529 C24.3123657,122.929577 27.7760021,117.691752 38.3426877,113.773054 C40.6279093,120.695986 39.5989226,129.340902 34.8997965,130.282196 C31.7670458,130.909726 29.4510398,130.644503 27.9517786,129.486529 Z" id="Path-19-Copy-5" fill="#607600" transform="translate(33.031751, 122.193038) rotate(14.000000) translate(-33.031751, -122.193038) "></path>
                    <path d="M5.17182036,121.944105 C1.53719382,115.347926 4.97368527,110.091322 15.4812947,106.174293 C17.7690328,113.135573 16.7620618,121.820722 12.0876304,122.757356 C8.97134275,123.381779 6.66607275,123.110695 5.17182036,121.944105 Z" id="Path-19-Copy-7" fill="#607600" transform="translate(10.214090, 114.629100) rotate(-82.000000) translate(-10.214090, -114.629100) "></path>
                    <path d="M24.9486615,72.0060515 C21.314035,65.4098724 24.7505264,60.1532686 35.2581359,56.2362401 C37.545874,63.1975202 36.538903,71.8826686 31.8644715,72.8193027 C28.7481839,73.4437255 26.4429139,73.1726417 24.9486615,72.0060515 Z" id="Path-19-Copy-9" fill="#607600" transform="translate(29.990931, 64.691047) rotate(-82.000000) translate(-29.990931, -64.691047) "></path>
                    <path d="M55.3345066,38.7027562 C51.705671,32.1429616 55.1713147,26.8962113 65.7314376,22.9625052 C68.0070662,29.890066 66.9700264,38.5448159 62.2746618,39.4919724 C59.1444188,40.12341 56.8310337,39.860338 55.3345066,38.7027562 Z" id="Path-19-Copy-10" fill="#607600" transform="translate(60.416307, 31.394389) rotate(30.000000) translate(-60.416307, -31.394389) "></path>
                    <path d="M23.3878922,267.194494 C19.7484793,260.637542 23.2121157,255.399717 33.7788013,251.481018 C36.0640228,258.403951 35.0350362,267.048866 30.3359101,267.990161 C27.2031594,268.61769 24.8871534,268.352468 23.3878922,267.194494 Z" id="Path-19-Copy-6" fill="#607600" transform="translate(28.467865, 259.901002) rotate(14.000000) translate(-28.467865, -259.901002) "></path>
                    <path d="M68.4096547,91.8573193 C64.7487103,85.2303716 68.218509,79.9445985 78.8190508,76 C81.1212949,82.9948882 80.0993272,91.724802 75.3841444,92.6696158 C72.2406892,93.2994916 69.9158593,93.0287261 68.4096547,91.8573193 Z" id="Path-19-Copy-2" fill="#607600"></path>
                </g>
                <g id="frontTree1" transform="translate(591.487277, 0.000000)">
                    <polygon id="Path-10" fill="#23302A" points="64.9374277 0 58 342 75 342"></polygon>
                    <polygon id="Path-11" fill="#23302A" points="67.7491896 179 99 145 65 170.670857"></polygon>
                    <polygon id="Path-12" fill="#23302A" points="68 240.861558 118 189 68 253"></polygon>
                    <polygon id="Path-13" fill="#23302A" points="62 228 13 167 62 215.726164"></polygon>
                    <polygon id="Path-14" fill="#23302A" points="64 155 29 120 64 145.138299"></polygon>
                    <polygon id="Path-15" fill="#23302A" points="66 110 83 91 66 100.5"></polygon>
                    <polygon id="Path-16" fill="#23302A" points="64 85 45 65 64 76.5081577"></polygon>
                    <polygon id="Path-17" fill="#23302A" points="61.7560992 299 27 257 66 292.908954"></polygon>
                    <path d="M95.4096547,147.857319 C91.7487103,141.230372 95.218509,135.944598 105.819051,132 C108.121295,138.994888 107.099327,147.724802 102.384144,148.669616 C99.2406892,149.299492 96.9158593,149.028726 95.4096547,147.857319 Z" id="Path-19" fill="#607600"></path>
                    <path d="M115.409655,189.857319 C111.74871,183.230372 115.218509,177.944598 125.819051,174 C128.121295,180.994888 127.099327,189.724802 122.384144,190.669616 C119.240689,191.299492 116.915859,191.028726 115.409655,189.857319 Z" id="Path-19-Copy" fill="#607600"></path>
                    <path d="M89.6696906,212.706408 C86.0109838,206.126498 89.4501492,200.89402 99.987187,197.008973 C102.294994,203.950355 101.299731,212.603874 96.6107986,213.529051 C93.484844,214.145836 91.1711414,213.871622 89.6696906,212.706408 Z" id="Path-19-Copy-3" fill="#607600" transform="translate(94.717796, 205.429123) rotate(-35.000000) translate(-94.717796, -205.429123) "></path>
                    <path d="M33.3453013,188.504228 C29.7058884,181.947276 33.1695247,176.709451 43.7362103,172.790753 C46.0214319,179.713686 44.9924452,188.358601 40.2933191,189.299895 C37.1605684,189.927425 34.8445625,189.662203 33.3453013,188.504228 Z" id="Path-19-Copy-4" fill="#607600" transform="translate(38.425274, 181.210737) rotate(14.000000) translate(-38.425274, -181.210737) "></path>
                    <path d="M37.9486615,72.0060515 C34.314035,65.4098724 37.7505264,60.1532686 48.2581359,56.2362401 C50.545874,63.1975202 49.538903,71.8826686 44.8644715,72.8193027 C41.7481839,73.4437255 39.4429139,73.1726417 37.9486615,72.0060515 Z" id="Path-19-Copy-9" fill="#607600" transform="translate(42.990931, 64.691047) rotate(-82.000000) translate(-42.990931, -64.691047) "></path>
                    <path d="M4.48016109,171.882158 C0.845534551,165.285979 4.282026,160.029375 14.7896354,156.112346 C17.0773735,163.073626 16.0704025,171.758775 11.3959711,172.695409 C8.27968348,173.319832 5.97441348,173.048748 4.48016109,171.882158 Z" id="Path-19-Copy-8" fill="#607600" transform="translate(9.522431, 164.567153) rotate(-82.000000) translate(-9.522431, -164.567153) "></path>
                    <path d="M36.3878922,267.194494 C32.7484793,260.637542 36.2121157,255.399717 46.7788013,251.481018 C49.0640228,258.403951 48.0350362,267.048866 43.3359101,267.990161 C40.2031594,268.61769 37.8871534,268.352468 36.3878922,267.194494 Z" id="Path-19-Copy-6" fill="#607600" transform="translate(41.467865, 259.901002) rotate(14.000000) translate(-41.467865, -259.901002) "></path>
                    <path d="M81.4096547,91.8573193 C77.7487103,85.2303716 81.218509,79.9445985 91.8190508,76 C94.1212949,82.9948882 93.0993272,91.724802 88.3841444,92.6696158 C85.2406892,93.2994916 82.9158593,93.0287261 81.4096547,91.8573193 Z" id="Path-19-Copy-2" fill="#607600"></path>
                </g>
            </g>
            <ellipse id="rocketShadow" fill="#3B2C2C" cx="632" cy="410" rx="33" ry="6"></ellipse>
            <g id="house" transform="translate(406.000000, 324.000000)">
                <polygon id="Path-5" fill="#D8D8D8" points="15 6 15 18.3775924 22 22 22 6"></polygon>
                <polygon id="Path-6" fill="#A5A5A5" points="13 0 13 6 24 6 24 0"></polygon>
                <polygon id="Path-7" fill="#A5A5A5" points="21 6 21 21.1340684 22 22 22 6"></polygon>
                <polygon id="Path" fill="#7B5B2F" points="7 15.6895367 7 83 108 83 108 66.0382333"></polygon>
                <polygon id="Path-4" fill="#654F28" points="7 79 108 79 108 77 7 77"></polygon>
                <polygon id="Path-4-Copy-15" fill="#654F28" points="7 83 108 83 108 81 7 81"></polygon>
                <polygon id="Path-4-Copy" fill="#654F28" points="7 75 108 75 108 73 7 73"></polygon>
                <polygon id="Path-4-Copy-2" fill="#654F28" points="7 71 108 71 108 69 7 69"></polygon>
                <polygon id="Path-4-Copy-3" fill="#654F28" points="7 67 108 67 108 65 7 65"></polygon>
                <polygon id="Path-4-Copy-4" fill="#654F28" points="7 63 102 63 98.2773366 61 7 61"></polygon>
                <polygon id="Path-4-Copy-5" fill="#654F28" points="7 59 94 59 90.4188568 57 7 57"></polygon>
                <polygon id="Path-4-Copy-6" fill="#654F28" points="7 55 87 55 82.7770753 53 7 53"></polygon>
                <polygon id="Path-4-Copy-7" fill="#654F28" points="7 51 78 50.9900271 73.8919586 49 7 49"></polygon>
                <polygon id="Path-4-Copy-8" fill="#654F28" points="7 47 70 47 65.664617 45 7 45"></polygon>
                <polygon id="Path-4-Copy-9" fill="#654F28" points="7 43 62 43 57.5035457 41 7 41"></polygon>
                <polygon id="Path-4-Copy-10" fill="#654F28" points="7 39 55 39 50.2879614 37 7 37"></polygon>
                <polygon id="Path-4-Copy-11" fill="#654F28" points="7 35 45.5601895 35 41.713119 33 7 33"></polygon>
                <polygon id="Path-4-Copy-12" fill="#654F28" points="7 31 39 31 33.4522691 29 7 29"></polygon>
                <polygon id="Path-4-Copy-13" fill="#654F28" points="7 27 32 27 25.1259327 25 7 25"></polygon>
                <polygon id="Path-4-Copy-14" fill="#654F28" points="7 23 21.5 23 18.1390169 21 7 21"></polygon>
                <polygon id="Path-4-Copy-16" fill="#654F28" points="7 19 21 19 18.1390169 17 7 17"></polygon>
                <polygon id="Path-3" fill="#00DFFF" points="27 35 27 80 87 80 87 65.5398755"></polygon>
                <polygon id="Path-2" fill="#50391C" points="-1.02140518e-13 8 -1.02140518e-13 12.3544388 115 70 115 65.3130386"></polygon>
            </g>
            <g id="person" transform="translate(450.000000, 384.000000)">
                <circle id="head" fill="#767894" cx="5.04074653" cy="3" r="3"></circle>
                <line x1="5.04074653" y1="5.49010581" x2="5.04074653" y2="10" id="body" stroke="#767894"></line>
                <line x1="5.04074653" y1="10" x2="6.54074653" y2="13.5" id="rightThigh" stroke="#767894" stroke-linecap="round"></line>
                <line x1="5.04074653" y1="10" x2="3.54074653" y2="13.5" id="leftThigh" stroke="#767894" stroke-linecap="round"></line>
                <line x1="5.04074653" y1="7.74505291" x2="8.54074653" y2="8.5" id="leftArm" stroke="#767894" stroke-linecap="round"></line>
                <line x1="5.04074653" y1="7.74505291" x2="2.54074653" y2="9.5" id="rightArm" stroke="#767894" stroke-linecap="round"></line>
                <line x1="3.54074653" y1="13.5" x2="3.54074653" y2="18.0819077" id="leftLeg" stroke="#767894" stroke-linecap="round"></line>
                <line x1="6.54074653" y1="13.5" x2="6.54074653" y2="18.0819077" id="rightLeg" stroke="#767894" stroke-linecap="round"></line>
                <line x1="8.54074653" y1="8.5" x2="7.39373488" y2="11.5" id="rightHand" stroke="#767894" stroke-linecap="round"></line>
                <line x1="2.54074653" y1="9.5" x2="0.540746527" y2="6.5" id="leftHand" stroke="#767894" stroke-linecap="round"></line>
            </g>
            <g id="rocket" transform="translate(608.000000, 338.000000)">
                <g id="rocketFlames" transform="translate(12.000000, 68.000000)">
                    <path d="M21.5,9.45003118 C24.8333333,3.87094433 24.8333333,1.08140091 21.5,1.08140091 C18.1666667,1.08140091 18.1666667,3.87094433 21.5,9.45003118 Z" id="largeFlameRight" fill="#ECC161"></path>
                    <path d="M2.5,9.45003118 C5.83333333,3.87094433 5.83333333,1.08140091 2.5,1.08140091 C-0.833333333,1.08140091 -0.833333333,3.87094433 2.5,9.45003118 Z" id="largeFlameLeft" fill="#ECC161"></path>
                    <path d="M21.5,6 C23.5,2 23.5,0 21.5,0 C19.5,0 19.5,2 21.5,6 Z" id="smallFlameRight" fill="#D3A956"></path>
                    <path d="M2.5,6 C4.5,2 4.5,0 2.5,0 C0.5,0 0.5,2 2.5,6 Z" id="smallFlameLeft" fill="#D3A956"></path>
                </g>
                <circle id="rocketBack" stroke="#979797" fill="#D8D8D8" cx="23.5" cy="47.5" r="11"></circle>
                <g id="personInRocket" transform="translate(8.000000, 46.000000)">
                    <circle id="head" fill="#767894" cx="5.04074653" cy="3" r="3"></circle>
                    <line x1="5.04074653" y1="5.49010581" x2="5.04074653" y2="10" id="body" stroke="#767894"></line>
                    <line x1="5.04074653" y1="10" x2="6.54074653" y2="13.5" id="rightThigh" stroke="#767894" stroke-linecap="round"></line>
                    <line x1="5.04074653" y1="10" x2="3.54074653" y2="13.5" id="leftThigh" stroke="#767894" stroke-linecap="round"></line>
                    <line x1="5.04074653" y1="7.74505291" x2="8.54074653" y2="8.5" id="leftArm" stroke="#767894" stroke-linecap="round"></line>
                    <line x1="5.04074653" y1="7.74505291" x2="2.54074653" y2="9.5" id="rightArm" stroke="#767894" stroke-linecap="round"></line>
                    <line x1="3.54074653" y1="13.5" x2="3.54074653" y2="18.0819077" id="leftLeg" stroke="#767894" stroke-linecap="round"></line>
                    <line x1="6.54074653" y1="13.5" x2="6.54074653" y2="18.0819077" id="rightLeg" stroke="#767894" stroke-linecap="round"></line>
                    <line x1="8.54074653" y1="8.5" x2="7.39373488" y2="11.5" id="rightHand" stroke="#767894" stroke-linecap="round"></line>
                    <line x1="2.54074653" y1="9.5" x2="0.540746527" y2="6.5" id="leftHand" stroke="#767894" stroke-linecap="round"></line>
                </g>
                <polygon id="Rectangle" fill="#8AA0B0" points="11.2956918 60 18.2719285 60 20 70 9 70"></polygon>
                <polygon id="Rectangle-Copy" fill="#8AA0B0" points="29.8967234 60 36.7213671 60 39 70 28 70"></polygon>
                <path d="M6.25460192,62 L41.7453981,62 C42.1583486,62 42.3254599,62.0464128 42.4884229,62.1335664 C42.6513858,62.2207199 42.7792801,62.3486142 42.8664336,62.5115771 C42.9535872,62.6745401 43,62.8416514 43,63.2546019 L43,63.7453981 C43,64.1583486 42.9535872,64.3254599 42.8664336,64.4884229 C42.7792801,64.6513858 42.6513858,64.7792801 42.4884229,64.8664336 C42.3254599,64.9535872 42.1583486,65 41.7453981,65 L6.25460192,65 C5.84165137,65 5.67454011,64.9535872 5.51157715,64.8664336 C5.34861419,64.7792801 5.2207199,64.6513858 5.13356635,64.4884229 C5.04641281,64.3254599 5,64.1583486 5,63.7453981 L5,63.2546019 C5,62.8416514 5.04641281,62.6745401 5.13356635,62.5115771 C5.2207199,62.3486142 5.34861419,62.2207199 5.51157715,62.1335664 C5.67454011,62.0464128 5.84165137,62 6.25460192,62 Z" id="Rectangle" fill="#544468"></path>
                <path d="M23,0 L48.3140756,64 L-3.41060513e-13,64 L23,0 Z M23.5,38 C18.2532949,38 14,42.2532949 14,47.5 C14,52.7467051 18.2532949,57 23.5,57 C28.7467051,57 33,52.7467051 33,47.5 C33,42.2532949 28.7467051,38 23.5,38 Z" id="Combined-Shape" fill="#B0BEC4"></path>
                <circle id="Oval-Copy-21" stroke="#544468" stroke-width="2" fill-opacity="0.5" fill="#00DFFF" cx="23.5" cy="47.5" r="8.5"></circle>
                <polygon id="Path-8" fill="#B3ACC0" points="1.13749213 61 47.1434616 61 48.3140756 64 -4.63448724e-14 64"></polygon>
                <circle id="Oval" stroke="#979797" fill="#514668" transform="translate(3.500000, 62.500000) scale(-1, 1) translate(-3.500000, -62.500000) " cx="3.5" cy="62.5" r="1"></circle>
                <circle id="Oval-Copy-4" stroke="#979797" fill="#514668" transform="translate(15.500000, 62.500000) scale(-1, 1) translate(-15.500000, -62.500000) " cx="15.5" cy="62.5" r="1"></circle>
                <circle id="Oval-Copy-8" stroke="#979797" fill="#514668" transform="translate(27.500000, 62.500000) scale(-1, 1) translate(-27.500000, -62.500000) " cx="27.5" cy="62.5" r="1"></circle>
                <circle id="Oval-Copy" stroke="#979797" fill="#514668" transform="translate(6.500000, 62.500000) scale(-1, 1) translate(-6.500000, -62.500000) " cx="6.5" cy="62.5" r="1"></circle>
                <circle id="Oval-Copy-5" stroke="#979797" fill="#514668" transform="translate(18.500000, 62.500000) scale(-1, 1) translate(-18.500000, -62.500000) " cx="18.5" cy="62.5" r="1"></circle>
                <circle id="Oval-Copy-9" stroke="#979797" fill="#514668" transform="translate(30.500000, 62.500000) scale(-1, 1) translate(-30.500000, -62.500000) " cx="30.5" cy="62.5" r="1"></circle>
                <circle id="Oval-Copy-2" stroke="#979797" fill="#514668" transform="translate(9.500000, 62.500000) scale(-1, 1) translate(-9.500000, -62.500000) " cx="9.5" cy="62.5" r="1"></circle>
                <circle id="Oval-Copy-6" stroke="#979797" fill="#514668" transform="translate(21.500000, 62.500000) scale(-1, 1) translate(-21.500000, -62.500000) " cx="21.5" cy="62.5" r="1"></circle>
                <circle id="Oval-Copy-10" stroke="#979797" fill="#514668" transform="translate(33.500000, 62.500000) scale(-1, 1) translate(-33.500000, -62.500000) " cx="33.5" cy="62.5" r="1"></circle>
                <circle id="Oval-Copy-3" stroke="#979797" fill="#514668" transform="translate(12.500000, 62.500000) scale(-1, 1) translate(-12.500000, -62.500000) " cx="12.5" cy="62.5" r="1"></circle>
                <circle id="Oval-Copy-7" stroke="#979797" fill="#514668" transform="translate(24.500000, 62.500000) scale(-1, 1) translate(-24.500000, -62.500000) " cx="24.5" cy="62.5" r="1"></circle>
                <circle id="Oval-Copy-11" stroke="#979797" fill="#514668" transform="translate(36.500000, 62.500000) scale(-1, 1) translate(-36.500000, -62.500000) " cx="36.5" cy="62.5" r="1"></circle>
                <circle id="Oval-Copy-12" stroke="#979797" fill="#514668" transform="translate(39.500000, 62.500000) scale(-1, 1) translate(-39.500000, -62.500000) " cx="39.5" cy="62.5" r="1"></circle>
                <circle id="Oval-Copy-13" stroke="#979797" fill="#514668" transform="translate(42.500000, 62.500000) scale(-1, 1) translate(-42.500000, -62.500000) " cx="42.5" cy="62.5" r="1"></circle>
                <circle id="Oval-Copy-20" stroke="#979797" fill="#514668" transform="translate(45.500000, 62.500000) scale(-1, 1) translate(-45.500000, -62.500000) " cx="45.5" cy="62.5" r="1"></circle>
                <polygon id="Path-9" fill="#B3ACC0" points="15.6877941 20.3864119 31.0634334 20.3864119 30.2280257 18.2715897 16.4273167 18.2715897"></polygon>
                <circle id="Oval" stroke="#979797" fill="#514668" transform="translate(19.500000, 19.500000) scale(-1, 1) translate(-19.500000, -19.500000) " cx="19.5" cy="19.5" r="1"></circle>
                <circle id="Oval-Copy-19" stroke="#979797" fill="#514668" transform="translate(17.500000, 19.500000) scale(-1, 1) translate(-17.500000, -19.500000) " cx="17.5" cy="19.5" r="1"></circle>
                <circle id="Oval-Copy-15" stroke="#979797" fill="#514668" transform="translate(23.500000, 19.500000) scale(-1, 1) translate(-23.500000, -19.500000) " cx="23.5" cy="19.5" r="1"></circle>
                <circle id="Oval-Copy-17" stroke="#979797" fill="#514668" transform="translate(27.500000, 19.500000) scale(-1, 1) translate(-27.500000, -19.500000) " cx="27.5" cy="19.5" r="1"></circle>
                <circle id="Oval-Copy-14" stroke="#979797" fill="#514668" transform="translate(21.500000, 19.500000) scale(-1, 1) translate(-21.500000, -19.500000) " cx="21.5" cy="19.5" r="1"></circle>
                <circle id="Oval-Copy-16" stroke="#979797" fill="#514668" transform="translate(25.500000, 19.500000) scale(-1, 1) translate(-25.500000, -19.500000) " cx="25.5" cy="19.5" r="1"></circle>
                <circle id="Oval-Copy-18" stroke="#979797" fill="#514668" transform="translate(29.500000, 19.500000) scale(-1, 1) translate(-29.500000, -19.500000) " cx="29.5" cy="19.5" r="1"></circle>
            </g>
        </g>
    </g>
</svg>